<!-- Generator: Adobe Illustrator 18.0.0, SVG Export Plug-In  -->
<svg version="1.1"
	 xmlns="http://www.w3.org/2000/svg" xmlns:xlink="http://www.w3.org/1999/xlink" xmlns:a="http://ns.adobe.com/AdobeSVGViewerExtensions/3.0/"
	 x="0px" y="0px" width="618.2px" height="530px" viewBox="0 0 618.2 530" enable-background="new 0 0 618.2 530"
	 xml:space="preserve">
	 <style>
 		@keyframes spin {
 			0% {
 				transform: rotate(0deg)
 			}

 			100% {
 				transform: rotate(360deg)
 			}
 		}

 		@keyframes spin-reverse {
 			0% {
 				transform: rotate(0deg)
 			}

 			100% {
 				transform: rotate(-360deg)
 			}
 		}

 		@keyframes scale-up {
 			0% {
 				transform: scale(0)
 			}

 			5% {
 				transform: scale(1)
 			}

 			75% {
 				transform: scale(1)
 			}

 			80% {
 				transform: scale(0)
 			}
 		}



 		.gear {
 			transform-origin: center;
 			animation: spin linear 6s infinite;
 		}

 		.gear.-reverse {
 			transform-origin: center;
 			animation: spin-reverse linear 6s infinite;
 		}

 		.arrows > g {
 			transform: scale(0);
 			transform-origin: left bottom;
 			animation: scale-up ease-in 4s infinite;
 		}

 		.arrows > g:nth-child(1) { animation-delay: 0.3s }
 		.arrows > g:nth-child(2) { animation-delay: 0.6s }
 		.arrows > g:nth-child(3) { animation-delay: 0.9s }
 		.arrows > g:nth-child(4) { animation-delay: 1.1s }
 		.arrows > g:nth-child(5) { animation-delay: 1.3s }
 		.arrows > g:nth-child(6) { animation-delay: 1.5s }
 		.arrows > g:nth-child(7) { animation-delay: 1.7s }


	 </style>

	<ellipse opacity="0.15" fill="#262424" cx="304.3" cy="510.9" rx="110.5" ry="19.1"/>
	<g class="arrows">
		<g>
			
		<path fill="#127CC1" d="M446,140.7c-0.6,0-1.1-0.5-1.1-1.1l0-12.4l-12.4,0c-0.6,0-1.1-0.5-1.1-1.1s0.5-1.1,1.1-1.1l0,0l13.6,0    c0.6,0,1.1,0.5,1.1,1.1l0,13.6C447.2,140.2,446.7,140.7,446,140.7L446,140.7z"/>
		<path fill="#127CC1" d="M405.5,164.9l37.9-37.9c0.4-0.4,1.2-0.4,1.6,0c0.4,0.4,0.4,1.2,0,1.6l-37.7,37.7L405.5,164.9z"/>
	
		</g>
		<g>
			<path fill="#127CC1" d="M385.3,136.1c-0.6,0-1.1-0.5-1.1-1.1l0-12.4l-12.4,0c-0.6,0-1.1-0.5-1.1-1.1c0-0.6,0.5-1.1,1.1-1.1l0,0
				l13.6,0c0.6,0,1.1,0.5,1.1,1.1l0,13.6C386.5,135.6,386,136.1,385.3,136.1L385.3,136.1z"/>
			<path fill="#127CC1" d="M363.8,144.1c-0.3,0-0.6-0.1-0.8-0.3c-0.4-0.4-0.4-1.2,0-1.6l19.6-19.7c0.4-0.5,1.2-0.4,1.6,0
				c0.4,0.4,0.4,1.2,0,1.6l-19.6,19.7C364.4,144,364.1,144.1,363.8,144.1L363.8,144.1z"/>
		</g>		
		<g>
			<path fill="#127CC1" d="M444.9,47.9c-0.6,0-1.1-0.5-1.1-1.1l0-12.4l-12.4,0c-0.6,0-1.1-0.5-1.1-1.1c0-0.6,0.5-1.1,1.1-1.1l0,0
				l13.6,0c0.6,0,1.1,0.5,1.1,1.1l0,13.6C446,47.4,445.5,47.9,444.9,47.9L444.9,47.9z"/>
			<path fill="#127CC1" d="M385.9,93.3c-0.3,0-0.6-0.1-0.8-0.3c-0.4-0.4-0.4-1.2,0-1.6l57.1-57.1c0.4-0.5,1.2-0.5,1.6,0
				c0.4,0.4,0.4,1.2,0,1.6L386.7,93C386.5,93.2,386.2,93.3,385.9,93.3L385.9,93.3z"/>
		</g>
		<g>
			<path fill="#127CC1" d="M466.7,78.9c-0.6,0-1.1-0.5-1.1-1.1l0-12.4l-12.4,0c-0.6,0-1.1-0.5-1.1-1.1c0-0.6,0.5-1.1,1.1-1.1l0,0
				l13.6,0c0.6,0,1.1,0.5,1.1,1.1l0,13.6C467.8,78.4,467.3,78.9,466.7,78.9L466.7,78.9z"/>
			<path fill="#127CC1" d="M420.7,111.3c-0.3,0-0.6-0.1-0.8-0.3c-0.4-0.4-0.4-1.2,0-1.6L464,65.2c0.4-0.5,1.2-0.5,1.6,0
				c0.4,0.4,0.4,1.2,0,1.6l-44.1,44.1C421.3,111.2,421,111.3,420.7,111.3L420.7,111.3z"/>
		</g>
		<g>
			<path fill="#127CC1" d="M529.7,88.8c-0.6,0-1.1-0.5-1.1-1.1l0-12.4l-12.4,0c-0.6,0-1.1-0.5-1.1-1.1c0-0.6,0.5-1.1,1.1-1.1l0,0
				l13.6,0c0.6,0,1.1,0.5,1.1,1.1l0,13.6C530.8,88.3,530.3,88.8,529.7,88.8L529.7,88.8z"/>
			<path fill="#127CC1" d="M508.2,96.7c-0.3,0-0.6-0.1-0.8-0.3c-0.4-0.4-0.4-1.2,0-1.6L527,75.1c0.4-0.5,1.2-0.4,1.6,0
				c0.4,0.4,0.4,1.2,0,1.6L509,96.4C508.7,96.6,508.5,96.7,508.2,96.7L508.2,96.7z"/>
		</g>
		<g>
			<path fill="#127CC1" d="M378.5,52.5c-0.6,0-1.1-0.5-1.1-1.1l0-12.4l-12.4,0c-0.6,0-1.1-0.5-1.1-1.1c0-0.6,0.5-1.1,1.1-1.1l0,0
				l13.6,0c0.6,0,1.1,0.5,1.1,1.1l0,13.6C379.6,52,379.1,52.5,378.5,52.5L378.5,52.5z"/>
			<path fill="#127CC1" d="M357,60.4c-0.3,0-0.6-0.1-0.8-0.3c-0.4-0.4-0.4-1.2,0-1.6l19.6-19.7c0.4-0.5,1.2-0.4,1.6,0
				c0.4,0.4,0.4,1.2,0,1.6l-19.6,19.7C357.5,60.3,357.2,60.4,357,60.4L357,60.4z"/>
		</g>
		<g>
			<path fill="#127CC1" d="M533.1,15.9c-0.6,0-1.1-0.5-1.1-1.1l0-12.4l-12.4,0c-0.6,0-1.1-0.5-1.1-1.1s0.5-1.1,1.1-1.1l0,0l13.6,0
				c0.6,0,1.1,0.5,1.1,1.1l0,13.6C534.2,15.4,533.7,15.9,533.1,15.9L533.1,15.9z"/>
			<path fill="#127CC1" d="M486.5,48.9c-0.3,0-0.6-0.1-0.8-0.3c-0.4-0.4-0.4-1.2,0-1.6l44.7-44.7c0.4-0.5,1.2-0.5,1.6,0
				c0.4,0.4,0.4,1.2,0,1.6l-44.7,44.7C487.1,48.7,486.8,48.9,486.5,48.9L486.5,48.9z"/>
		</g>
	</g>
	<g class="gear -reverse">
		<path fill="#356A86" d="M230.4,270.2h-14.5c-1.1-5.1-2.4-10-4.2-14.9l12.1-7c2.9-1.7,3.9-5.4,2.2-8.3l-12.2-21
			c-1.7-2.9-5.4-3.9-8.3-2.2l-12.6,7.3c-3.4-3.9-7.1-7.5-11-10.8l7-12.1c1.7-2.9,0.7-6.6-2.2-8.3l-21-12.2c-2.9-1.6-6.6-0.7-8.3,2.2
			l-7.3,12.6c-4.8-1.7-9.8-2.9-15-3.8v-14c0-3.4-2.7-6.1-6.1-6.1h-24.3c-3.4,0-6.1,2.7-6.1,6.1v14.5c-5.1,1-10,2.4-14.8,4.2l-7-12.1
			c-1.7-2.9-5.4-3.9-8.3-2.2l-21.1,12.2c-2.9,1.7-3.9,5.4-2.2,8.3l7.3,12.6c-3.9,3.4-7.5,7.1-10.8,11l-12.1-7
			c-2.9-1.7-6.6-0.7-8.3,2.2l-12.2,21c-1.7,2.9-0.7,6.6,2.2,8.3l12.6,7.3c-1.6,4.8-2.9,9.8-3.8,14.9h-14c-3.4,0-6.1,2.7-6.1,6.1
			l0,24.3c0,3.4,2.7,6.1,6.1,6.1h14.5c1,5.1,2.4,10.1,4.2,14.9l-12.1,7c-2.9,1.7-3.9,5.4-2.2,8.3l12.2,21.1c1.7,2.9,5.4,3.9,8.3,2.2
			l12.6-7.3c3.4,3.9,7.1,7.5,11,10.8l-7,12.2c-1.7,2.9-0.7,6.6,2.2,8.3L70.8,399c2.9,1.7,6.6,0.7,8.3-2.2l7.3-12.6
			c4.8,1.6,9.8,2.9,14.9,3.8l0,14.1c0,3.3,2.7,6.1,6.1,6.1l24.3,0c3.4,0,6.1-2.7,6.1-6.1v-14.5c5.1-1,10-2.4,14.8-4.2l7,12.1
			c1.7,2.9,5.4,3.9,8.3,2.2l21.1-12.2c2.9-1.7,3.9-5.4,2.2-8.3l-7.3-12.6c3.9-3.4,7.5-7.1,10.8-11l12.2,7c2.9,1.7,6.6,0.7,8.3-2.2
			l12.2-21.1c1.7-2.9,0.7-6.6-2.2-8.3l-12.6-7.3c1.6-4.8,2.9-9.8,3.8-14.9h14c3.3,0,6.1-2.7,6.1-6.1v-24.3
			C236.5,273,233.7,270.2,230.4,270.2z M118.2,352.9c-34.8,0-63.1-28.3-63.1-63.1c0-34.8,28.2-63.1,63.1-63.1
			c34.8,0,63.1,28.3,63.1,63.1C181.3,324.7,153.1,352.9,118.2,352.9z"/>
		<path fill="#337EA0" d="M116.1,352.9c-33.9-1.1-61-28.9-61-63c0-34.1,27.1-61.9,61-63l0-55.2h-11.4c-3.4,0-6.1,2.7-6.1,6.1v14.5
			c-5.1,1-10,2.4-14.8,4.2l-7-12.1c-1.7-2.9-5.4-3.9-8.3-2.2l-21.1,12.2c-2.9,1.7-3.9,5.4-2.2,8.3l7.3,12.6c-3.9,3.4-7.5,7.1-10.8,11
			l-12.1-7c-2.9-1.7-6.6-0.7-8.3,2.2l-12.2,21c-1.7,2.9-0.7,6.6,2.2,8.3l12.6,7.3c-1.6,4.8-2.9,9.8-3.8,14.9h-14
			c-3.4,0-6.1,2.7-6.1,6.1l0,24.3c0,3.4,2.7,6.1,6.1,6.1h14.5c1,5.1,2.4,10.1,4.2,14.9l-12.1,7c-2.9,1.7-3.9,5.4-2.2,8.3l12.2,21.1
			c1.7,2.9,5.4,3.9,8.3,2.2l12.6-7.3c3.4,3.9,7.1,7.5,11,10.8l-7,12.2c-1.7,2.9-0.7,6.6,2.2,8.3L70.8,399c2.9,1.7,6.6,0.7,8.3-2.2
			l7.3-12.6c4.8,1.6,9.8,2.9,14.9,3.8l0,14.1c0,3.3,2.7,6.1,6.1,6.1l8.7,0L116.1,352.9z"/>
		<path fill="#356A86" d="M118.2,213c-42.4,0-76.8,34.4-76.8,76.8c0,42.4,34.4,76.8,76.8,76.8c42.4,0,76.8-34.4,76.8-76.8
			C195.1,247.4,160.7,213,118.2,213z M118.2,352.9c-34.8,0-63.1-28.3-63.1-63.1c0-34.8,28.2-63.1,63.1-63.1
			c34.8,0,63.1,28.3,63.1,63.1C181.3,324.7,153.1,352.9,118.2,352.9z"/>
		<path fill="#337EA0" d="M118.2,213c-0.7,0-1.4,0-2.1,0v13.7c0.7,0,1.4-0.1,2.1-0.1c34.8,0,63.1,28.3,63.1,63.1
			c0,34.8-28.2,63.1-63.1,63.1c-0.7,0-1.4,0-2.1-0.1v13.8c0.7,0,1.4,0,2.1,0c42.4,0,76.8-34.4,76.8-76.8
			C195.1,247.4,160.7,213,118.2,213z"/>
	</g>


	<g class="gear">
		<path fill="#356A86" d="M557.3,470.8l-8.9-16.3c5.1-4.3,9.8-8.9,14.1-13.8l15.3,9.3c3.7,2.2,8.5,1.1,10.7-2.6l16.2-26.6
			c2.2-3.7,1.1-8.5-2.6-10.7l-15.9-9.7c2.3-6.2,4-12.5,5.3-19l18,0.4c4.3,0.1,7.9-3.3,8-7.6l0.7-31.1c0.1-4.3-3.3-7.9-7.6-8
			l-18.6-0.4c-1.1-6.5-2.8-12.8-4.9-19.1l15.8-8.6c3.8-2.1,5.2-6.8,3.1-10.6L591,268.9c-2.1-3.8-6.8-5.2-10.6-3.1l-16.3,8.9
			c-4.3-5.1-8.9-9.8-13.8-14.1l9.3-15.3c2.2-3.7,1.1-8.5-2.6-10.8l-26.6-16.2c-3.6-2.2-8.4-1.1-10.7,2.6l-9.7,15.9
			c-6.2-2.3-12.5-4.1-19-5.3l0.4-18c0.1-4.3-3.3-7.9-7.6-8l-31.1-0.7c-4.3-0.1-7.9,3.3-8,7.6l-0.4,18.6c-6.4,1.1-12.8,2.8-19.1,4.9
			l-8.6-15.8c-2.1-3.8-6.8-5.2-10.6-3.1l-27.3,14.9c-3.8,2.1-5.2,6.8-3.1,10.6l8.9,16.3c-5.1,4.3-9.8,8.9-14.1,13.8l-15.3-9.3
			c-3.7-2.2-8.5-1.1-10.7,2.6l-16.2,26.6c-2.2,3.7-1.1,8.5,2.6,10.7l15.9,9.7c-2.2,6.2-4.1,12.6-5.3,19l-18-0.4
			c-4.3-0.1-7.9,3.3-8,7.6l-0.7,31.2c-0.1,4.3,3.3,7.9,7.6,7.9l18.6,0.4c1.1,6.4,2.8,12.8,5,19.1l-15.8,8.6
			c-3.8,2.1-5.2,6.8-3.1,10.5l14.9,27.3c2.1,3.8,6.8,5.2,10.6,3.1l16.3-8.9c4.3,5.1,8.9,9.8,13.8,14.1l-9.3,15.3
			c-2.3,3.7-1.1,8.4,2.6,10.7l26.6,16.2c3.6,2.2,8.5,1.1,10.7-2.6l9.7-15.9c6.2,2.3,12.6,4.1,19,5.3l-0.4,18c-0.1,4.3,3.3,7.9,7.6,8
			l31.2,0.7c4.3,0.1,7.9-3.3,8-7.6l0.5-18.6c6.4-1.1,12.8-2.8,19.1-4.9l8.6,15.8c2.1,3.8,6.8,5.1,10.6,3.1l27.3-14.9
			C558,479.3,559.4,474.5,557.3,470.8z M418.3,383c-14.5-26.6-4.7-59.9,21.8-74.4c26.6-14.5,59.9-4.8,74.4,21.8
			c14.5,26.6,4.8,59.9-21.8,74.4C466.1,419.4,432.8,409.6,418.3,383z"/>
		<path fill="#337EA0" d="M394.3,393.1c-19.5-38.7-5-86.3,33.4-107.2c38.4-21,86.2-7.6,108.3,29.8l62.1-33.9l-7-12.8
			c-2.1-3.8-6.8-5.2-10.6-3.1l-16.3,8.9c-4.3-5.1-8.9-9.8-13.8-14.1l9.3-15.3c2.2-3.7,1.1-8.5-2.6-10.8l-26.6-16.2
			c-3.6-2.2-8.4-1.1-10.7,2.6l-9.7,15.9c-6.2-2.3-12.5-4.1-19-5.3l0.4-18c0.1-4.3-3.3-7.9-7.6-8l-31.1-0.7c-4.3-0.1-7.9,3.3-8,7.6
			l-0.4,18.6c-6.4,1.1-12.8,2.8-19.1,4.9l-8.6-15.8c-2.1-3.8-6.8-5.2-10.6-3.1l-27.3,14.9c-3.8,2.1-5.2,6.8-3.1,10.6l8.9,16.3
			c-5.1,4.3-9.8,8.9-14.1,13.8l-15.3-9.3c-3.7-2.2-8.5-1.1-10.7,2.6l-16.2,26.6c-2.2,3.7-1.1,8.5,2.6,10.7l15.9,9.7
			c-2.2,6.2-4.1,12.6-5.3,19l-18-0.4c-4.3-0.1-7.9,3.3-8,7.6l-0.7,31.2c-0.1,4.3,3.3,7.9,7.6,7.9l18.6,0.4c1.1,6.4,2.8,12.8,5,19.1
			l-15.8,8.6c-3.8,2.1-5.2,6.8-3.1,10.5l5.3,9.8L394.3,393.1z"/>
		<g>
			<path fill="#356A86" d="M466.5,458c-37.1,0-71.2-20.2-88.9-52.7c-13-23.7-15.9-51.1-8.3-77c7.6-25.9,24.9-47.4,48.6-60.3
				c14.9-8.1,31.6-12.4,48.5-12.4c37.1,0,71.1,20.2,88.9,52.7c26.8,49,8.7,110.6-40.3,137.4C500.1,453.7,483.3,458,466.5,458
				L466.5,458z M466.3,259.2c-16.2,0-32.4,4.1-46.7,12c-22.8,12.5-39.5,33.1-46.8,58.1c-7.3,25-4.5,51.3,8,74.2
				c17.1,31.3,49.9,50.8,85.7,50.8c16.2,0,32.3-4.1,46.7-12c47.2-25.8,64.6-85.2,38.8-132.3C534.9,278.7,502,259.2,466.3,259.2
				L466.3,259.2z"/>
		</g>
		<g>
			<path fill="#337EA0" d="M466.6,458c-9.6,0-19.2-1.4-28.6-4.1c-26-7.6-47.4-24.9-60.3-48.6l3.3-1.8c12.5,22.9,33.1,39.5,58.1,46.8
				c25,7.3,51.3,4.5,74.2-8c47.2-25.8,64.6-85.2,38.8-132.3l3.3-1.8c26.8,49,8.7,110.6-40.3,137.4C499.9,453.8,483.3,458,466.6,458
				L466.6,458z"/>
		</g>
		<path fill="#337EA0" d="M535.7,318.9l-21.2,11.6c14.5,26.6,4.8,59.9-21.8,74.4c-26.6,14.5-59.9,4.7-74.4-21.8l-21.2,11.6
			C418,432.9,466,446.9,504.3,426C542.5,405.1,556.6,357.1,535.7,318.9z"/>
	</g>

	<g>
		<g>
			<path fill="#93CBD6" d="M253.2,446.5c-4.5,18.3-8.9,36.6-13.4,54.9c41.7,0,83.5,0,125.2,0c-4.5-18.3-8.9-36.6-13.4-54.9
				C318.8,446.5,286,446.5,253.2,446.5z"/>
			<path fill="#FFFFFF" d="M372.7,500.4H232c-3.6,0-6.5,3.4-6.5,7.6v2.9h153.6V508C379.2,503.8,376.3,500.4,372.7,500.4z"/>
			<path fill="#FFFFFF" d="M90.8,425.2v30.2c0,5.8,4.7,10.5,10.5,10.5h402.1c5.8,0,10.5-4.7,10.5-10.5v-30.2H90.8z"/>
			<path fill="#253143" d="M514,425.2v-256c0-5.8-4.7-10.5-10.5-10.5H101.3c-5.8,0-10.5,4.7-10.5,10.5v256H514z"/>
		</g>
		<g>
			<rect x="108.1" y="175.1" fill="#D8D9DD" width="388.5" height="232.6"/>
			<rect x="108.1" y="175.1" fill="#153C3A" width="388.5" height="21.8"/>
			<rect x="108.1" y="196.9" fill="#4BCDCD" width="388.5" height="104.2"/>
			<circle fill="#8F9D3A" cx="468.4" cy="378.3" r="16.8"/>
		</g>
	</g>
</svg>
