<!-- Generator: Adobe Illustrator 18.0.0, SVG Export Plug-In  -->
<svg version="1.1"
	 xmlns="http://www.w3.org/2000/svg" xmlns:xlink="http://www.w3.org/1999/xlink" xmlns:a="http://ns.adobe.com/AdobeSVGViewerExtensions/3.0/"
	 x="0px" y="0px" width="66.5px" height="89.7px" viewBox="0 0 66.5 89.7" enable-background="new 0 0 66.5 89.7"
	 xml:space="preserve">
<defs>
</defs>
<g>
	<polygon fill="none" points="11.7,55.6 11.7,55.6 26.9,39.5 26.9,39.5 	"/>
	<polygon fill="none" points="30,36.3 30,36.3 38.8,26.9 	"/>
	<polygon fill="none" points="4.3,63.3 4.3,63.3 7.3,60.2 7.3,60.1 	"/>
	<rect x="26.2" y="37.9" fill="#FFCB09" width="4.4" height="0"/>
	<polygon fill="#FFCB09" points="7.3,60.1 7.3,60.2 11.7,55.6 11.7,55.6 	"/>
	<path fill="#FFCB09" d="M66.1,86.3L30.9,37.6l-2.8,3l-0.2,0.2l34.7,48c0.4,0.6,1.1,0.9,1.8,0.9c0.4,0,0.9-0.1,1.3-0.4
		C66.6,88.6,66.8,87.3,66.1,86.3z"/>
	<polygon fill="#FFFFFF" points="38.8,26.9 38.9,26.8 38.9,26.8 	"/>
	<g>
		<path fill="#F79321" d="M60.9,3.7c0.8-0.9,0.8-2.2-0.1-3.1c-0.4-0.4-1-0.6-1.5-0.6c-0.6,0-1.1,0.2-1.6,0.7L11.7,49.3l-4.3,4.6
			L0,61.3v6.3l7.3-7.5l4.3-4.6l15.3-16.1l3-3.2l8.9-9.4l0.1-0.1l0,0L60.9,3.7z"/>
	</g>
	<g>
		<g>
			<path fill="#D32027" d="M4.3,45.3V3.4c0-1.2-1-2.2-2.2-2.2S0,2.2,0,3.4v46.8V59l4.3-4.4V45.3z"/>
		</g>
		<g>
			<path fill="#D32027" d="M0,69.9L0,69.9l0,16.2c0,1.2,1,2.2,2.2,2.2s2.2-1,2.2-2.2V68.6L0,73V69.9z"/>
		</g>
		<path fill="#F15E24" d="M11.7,46.9v-9.5v-34c0-1.2-1-2.2-2.2-2.2s-2.2,1-2.2,2.2v38.9v9.2l3.2-3.3L11.7,46.9z"/>
		<path fill="#F15E24" d="M7.3,86.2c0,1.2,1,2.2,2.2,2.2s2.2-1,2.2-2.2V61l-4.3,4.6V86.2z"/>
		<polygon fill="#900E11" points="1.2,68.7 0,69.9 0,73 4.3,68.6 4.3,65.5 		"/>
		<polygon fill="#A03C0F" points="8.5,61.3 7.3,62.5 7.3,65.5 11.7,61 11.7,57.9 		"/>
	</g>
</g>
</svg>
