<!-- Generator: Adobe Illustrator 18.0.0, SVG Export Plug-In  -->
<svg version="1.1"
	 xmlns="http://www.w3.org/2000/svg" xmlns:xlink="http://www.w3.org/1999/xlink" xmlns:a="http://ns.adobe.com/AdobeSVGViewerExtensions/3.0/"
	 x="0px" y="0px" width="303.1px" height="327.2px" viewBox="0 0 303.1 327.2" enable-background="new 0 0 303.1 327.2"
	 xml:space="preserve">
	
	<style>
		@keyframes spin {
 			0% {
 				transform: rotate(0deg)
 			}

 			100% {
 				transform: rotate(360deg)
 			}
 		}

 		@keyframes scale-up {
 			0% {
 				transform: scale(0)
 			}

 			15% {
 				transform: scale(1)
 			}

 			75% {
 				transform: scale(1)
 			}

 			90% {
 				transform: scale(0)
 			}
 		}



 		.dotted-line {
 			transform-origin: center;
 			animation: spin linear 60s infinite;
 		}


 		.gear {
 			transform-origin: center;
 			animation: spin linear 6s infinite;
 		}
		

		.music {
 			transform: scale(0);
 			transform-origin: center;
 			animation: scale-up cubic-bezier(0.68, -0.55, 0.27, 1.55) 6s infinite;
 			animation-delay: 0s
 		}

 		.like {
 			transform: scale(0);
 			transform-origin: center;
 			animation: scale-up cubic-bezier(0.68, -0.55, 0.27, 1.55) 6s infinite;
 			animation-delay: 0.5s
 		}

 		.love {
 			transform: scale(0);
 			transform-origin: center;
 			animation: scale-up cubic-bezier(0.68, -0.55, 0.27, 1.55) 6s infinite;
 			animation-delay: 1s
 		}
	</style>


	<path class="dotted-line" fill="#127CC1" d="M159.9,280.4c-0.6,0-1.1-0.5-1.1-1.1c0-0.6,0.5-1.1,1.1-1.1c2.5,0,5-0.1,7.5-0.2c0.6,0,1.1,0.4,1.1,1
		c0,0.6-0.4,1.1-1,1.1C165,280.3,162.4,280.4,159.9,280.4C159.9,280.4,159.9,280.4,159.9,280.4L159.9,280.4z M152.4,280.3
		C152.4,280.3,152.3,280.3,152.4,280.3c-2.6-0.1-5.1-0.3-7.6-0.6c-0.6-0.1-1-0.6-1-1.2c0.1-0.6,0.6-1,1.2-1c2.5,0.3,5,0.4,7.4,0.6
		c0.6,0,1,0.5,1,1.1C153.4,279.8,153,280.3,152.4,280.3L152.4,280.3z M174.9,279.6c-0.5,0-1-0.4-1.1-1c-0.1-0.6,0.4-1.1,0.9-1.2
		c2.5-0.3,4.9-0.6,7.4-1c0.6-0.1,1.1,0.3,1.2,0.9c0.1,0.6-0.3,1.1-0.9,1.2c-2.5,0.4-5,0.8-7.5,1C175,279.6,174.9,279.6,174.9,279.6
		L174.9,279.6z M137.4,278.7c-0.1,0-0.1,0-0.2,0c-2.5-0.4-5-0.9-7.4-1.4c-0.6-0.1-0.9-0.7-0.8-1.3c0.1-0.6,0.7-0.9,1.3-0.8
		c2.4,0.5,4.9,1,7.3,1.4c0.6,0.1,1,0.6,0.9,1.2C138.4,278.3,138,278.7,137.4,278.7L137.4,278.7z M189.7,277.1c-0.5,0-0.9-0.3-1-0.8
		c-0.1-0.6,0.2-1.2,0.8-1.3c2.4-0.5,4.9-1.2,7.2-1.8c0.6-0.2,1.2,0.2,1.3,0.7c0.2,0.6-0.2,1.2-0.7,1.3c-2.4,0.7-4.9,1.3-7.3,1.8
		C189.9,277.1,189.8,277.1,189.7,277.1L189.7,277.1z M122.7,275.6c-0.1,0-0.2,0-0.3,0c-2.4-0.7-4.9-1.4-7.3-2.2
		c-0.6-0.2-0.9-0.8-0.7-1.4c0.2-0.6,0.8-0.9,1.4-0.7c2.4,0.8,4.8,1.5,7.1,2.2c0.6,0.2,0.9,0.7,0.8,1.3
		C123.6,275.2,123.2,275.6,122.7,275.6L122.7,275.6z M204.2,273c-0.4,0-0.9-0.3-1-0.7c-0.2-0.6,0.1-1.2,0.7-1.4
		c2.3-0.8,4.7-1.7,7-2.6c0.5-0.2,1.2,0,1.4,0.6c0.2,0.6,0,1.2-0.6,1.4c-2.3,0.9-4.7,1.8-7.1,2.6C204.4,273,204.3,273,204.2,273
		L204.2,273z M108.5,270.8c-0.1,0-0.3,0-0.4-0.1c-2.3-0.9-4.7-1.9-7-3c-0.5-0.2-0.8-0.9-0.5-1.4c0.2-0.5,0.9-0.8,1.4-0.5
		c2.3,1,4.6,2,6.9,2.9c0.6,0.2,0.8,0.8,0.6,1.4C109.3,270.6,108.9,270.8,108.5,270.8L108.5,270.8z M218.1,267.4c-0.4,0-0.8-0.2-1-0.6
		c-0.3-0.5,0-1.2,0.5-1.4c2.2-1,4.5-2.2,6.7-3.3c0.5-0.3,1.2-0.1,1.5,0.4c0.3,0.5,0.1,1.2-0.4,1.5c-2.2,1.2-4.5,2.3-6.8,3.4
		C218.4,267.4,218.3,267.4,218.1,267.4L218.1,267.4z M94.8,264.6c-0.2,0-0.3,0-0.5-0.1c-2.2-1.2-4.5-2.4-6.6-3.7
		c-0.5-0.3-0.7-1-0.4-1.5c0.3-0.5,1-0.7,1.5-0.4c2.1,1.3,4.3,2.5,6.5,3.7c0.5,0.3,0.7,0.9,0.5,1.5C95.5,264.3,95.2,264.6,94.8,264.6
		L94.8,264.6z M231.4,260.4c-0.4,0-0.7-0.2-0.9-0.5c-0.3-0.5-0.1-1.2,0.4-1.5c2.1-1.3,4.2-2.6,6.3-4c0.5-0.3,1.2-0.2,1.5,0.3
		c0.3,0.5,0.2,1.2-0.3,1.5c-2.1,1.4-4.2,2.8-6.4,4.1C231.8,260.3,231.6,260.4,231.4,260.4L231.4,260.4z M81.8,256.8
		c-0.2,0-0.4-0.1-0.6-0.2c-2.1-1.4-4.2-2.9-6.2-4.4c-0.5-0.4-0.6-1-0.2-1.5c0.4-0.5,1-0.6,1.5-0.2c2,1.5,4,2.9,6.1,4.3
		c0.5,0.3,0.6,1,0.3,1.5C82.5,256.7,82.2,256.8,81.8,256.8L81.8,256.8z M243.8,251.9c-0.3,0-0.6-0.1-0.9-0.4
		c-0.4-0.5-0.3-1.1,0.2-1.5c2-1.5,3.9-3.1,5.8-4.7c0.5-0.4,1.1-0.3,1.5,0.1c0.4,0.5,0.3,1.1-0.1,1.5c-1.9,1.6-3.9,3.2-5.9,4.8
		C244.2,251.8,244,251.9,243.8,251.9L243.8,251.9z M69.8,247.8c-0.2,0-0.5-0.1-0.7-0.3c-1.9-1.6-3.8-3.3-5.7-5
		c-0.4-0.4-0.5-1.1,0-1.5c0.4-0.4,1.1-0.5,1.5,0c1.8,1.7,3.7,3.4,5.6,5c0.5,0.4,0.5,1.1,0.1,1.5C70.4,247.7,70.1,247.8,69.8,247.8
		L69.8,247.8z M255.2,242.2c-0.3,0-0.6-0.1-0.8-0.3c-0.4-0.4-0.4-1.1,0-1.5c1.8-1.7,3.6-3.5,5.3-5.3c0.4-0.4,1.1-0.5,1.5,0
		c0.4,0.4,0.5,1.1,0,1.5c-1.7,1.8-3.5,3.6-5.4,5.4C255.7,242.1,255.5,242.2,255.2,242.2L255.2,242.2z M58.9,237.5
		c-0.3,0-0.6-0.1-0.8-0.3c-1.7-1.8-3.5-3.7-5.1-5.6c-0.4-0.5-0.3-1.1,0.1-1.5c0.4-0.4,1.1-0.3,1.5,0.1c1.6,1.9,3.3,3.7,5,5.5
		c0.4,0.4,0.4,1.1,0,1.5C59.4,237.4,59.1,237.5,58.9,237.5L58.9,237.5z M265.5,231.2c-0.2,0-0.5-0.1-0.7-0.3
		c-0.5-0.4-0.5-1.1-0.1-1.5c1.6-1.9,3.2-3.8,4.7-5.8c0.4-0.5,1-0.6,1.5-0.2c0.5,0.4,0.6,1,0.2,1.5c-1.5,2-3.1,4-4.7,5.9
		C266.1,231.1,265.8,231.2,265.5,231.2L265.5,231.2z M49.1,226.1c-0.3,0-0.6-0.1-0.9-0.4c-1.5-2-3-4.1-4.5-6.1
		c-0.3-0.5-0.2-1.2,0.3-1.5c0.5-0.3,1.2-0.2,1.5,0.3c1.4,2,2.9,4.1,4.4,6c0.4,0.5,0.3,1.1-0.2,1.5C49.5,226,49.3,226.1,49.1,226.1
		L49.1,226.1z M274.6,219.2c-0.2,0-0.4-0.1-0.6-0.2c-0.5-0.3-0.6-1-0.3-1.5c1.4-2.1,2.7-4.2,4-6.3c0.3-0.5,1-0.7,1.5-0.4
		c0.5,0.3,0.7,1,0.4,1.5c-1.3,2.2-2.7,4.3-4.1,6.4C275.3,219.1,275,219.2,274.6,219.2L274.6,219.2z M40.6,213.7
		c-0.4,0-0.7-0.2-0.9-0.5c-1.3-2.1-2.6-4.4-3.8-6.6c-0.3-0.5-0.1-1.2,0.4-1.5c0.5-0.3,1.2-0.1,1.5,0.4c1.2,2.2,2.4,4.3,3.7,6.5
		c0.3,0.5,0.1,1.2-0.4,1.5C40.9,213.7,40.7,213.7,40.6,213.7L40.6,213.7z M282.4,206.4c-0.2,0-0.3,0-0.5-0.1
		c-0.5-0.3-0.7-0.9-0.4-1.5c1.2-2.2,2.3-4.4,3.3-6.7c0.2-0.5,0.9-0.8,1.4-0.5c0.5,0.2,0.8,0.9,0.5,1.4c-1.1,2.3-2.2,4.6-3.4,6.8
		C283.1,206.1,282.8,206.4,282.4,206.4L282.4,206.4z M33.4,200.5c-0.4,0-0.8-0.2-1-0.6c-1.1-2.3-2.1-4.6-3-6.9
		c-0.2-0.5,0-1.2,0.6-1.4c0.5-0.2,1.2,0,1.4,0.6c0.9,2.3,1.9,4.6,3,6.8c0.3,0.5,0,1.2-0.5,1.4C33.7,200.5,33.6,200.5,33.4,200.5
		L33.4,200.5z M288.7,192.7c-0.1,0-0.3,0-0.4-0.1c-0.6-0.2-0.8-0.8-0.6-1.4c0.9-2.3,1.8-4.7,2.6-7c0.2-0.6,0.8-0.9,1.4-0.7
		c0.6,0.2,0.9,0.8,0.7,1.4c-0.8,2.4-1.7,4.8-2.6,7.1C289.5,192.4,289.1,192.7,288.7,192.7L288.7,192.7z M27.8,186.6
		c-0.4,0-0.9-0.3-1-0.7c-0.8-2.4-1.6-4.8-2.3-7.2c-0.2-0.6,0.2-1.2,0.7-1.3c0.6-0.2,1.2,0.2,1.3,0.7c0.7,2.4,1.4,4.8,2.2,7.1
		c0.2,0.6-0.1,1.2-0.7,1.4C28,186.6,27.9,186.6,27.8,186.6L27.8,186.6z M293.5,178.4c-0.1,0-0.2,0-0.3,0c-0.6-0.2-0.9-0.7-0.7-1.3
		c0.7-2.4,1.3-4.8,1.8-7.2c0.1-0.6,0.7-0.9,1.3-0.8c0.6,0.1,0.9,0.7,0.8,1.3c-0.5,2.4-1.1,4.9-1.8,7.4
		C294.4,178.1,294,178.4,293.5,178.4L293.5,178.4z M23.7,172.2c-0.5,0-0.9-0.3-1-0.8c-0.6-2.5-1.1-5-1.5-7.4
		c-0.1-0.6,0.3-1.1,0.9-1.2c0.6-0.1,1.1,0.3,1.2,0.9c0.4,2.4,0.9,4.9,1.4,7.3c0.1,0.6-0.2,1.2-0.8,1.3
		C23.8,172.2,23.7,172.2,23.7,172.2L23.7,172.2z M296.7,163.7c-0.1,0-0.1,0-0.2,0c-0.6-0.1-1-0.6-0.9-1.2c0.4-2.4,0.7-4.9,1-7.4
		c0.1-0.6,0.6-1,1.2-1c0.6,0.1,1,0.6,1,1.2c-0.3,2.5-0.6,5-1,7.5C297.7,163.4,297.2,163.7,296.7,163.7L296.7,163.7z M21.1,157.3
		c-0.5,0-1-0.4-1.1-1c-0.3-2.5-0.5-5-0.7-7.5c0-0.6,0.4-1.1,1-1.1c0.6,0,1.1,0.4,1.1,1c0.1,2.5,0.4,5,0.7,7.4
		c0.1,0.6-0.4,1.1-0.9,1.2C21.2,157.3,21.2,157.3,21.1,157.3L21.1,157.3z M298.3,148.8C298.3,148.8,298.3,148.8,298.3,148.8
		c-0.7,0-1.1-0.5-1.1-1.1c0.1-2.5,0.2-5,0.2-7.5c0-0.7,0-1.4,0-2.1c0-0.6,0.5-1.1,1.1-1.1c0.6,0,1.1,0.5,1.1,1.1c0,0.7,0,1.4,0,2.1
		c0,2.5-0.1,5.1-0.2,7.6C299.4,148.4,298.9,148.8,298.3,148.8L298.3,148.8z M20.2,142.3c-0.6,0-1.1-0.5-1.1-1.1l0-1.1
		c0-2.2,0.1-4.3,0.1-6.5c0-0.6,0.5-1,1.1-1c0.6,0,1.1,0.5,1,1.1c-0.1,2.1-0.1,4.3-0.1,6.4l0,1.1C21.3,141.9,20.8,142.3,20.2,142.3
		L20.2,142.3L20.2,142.3z M298.2,131.6c-0.6,0-1-0.4-1.1-1c-0.2-2.5-0.4-5-0.7-7.4c-0.1-0.6,0.3-1.1,0.9-1.2c0.6-0.1,1.1,0.3,1.2,0.9
		c0.3,2.5,0.5,5,0.7,7.5C299.3,131.1,298.8,131.6,298.2,131.6C298.2,131.6,298.2,131.6,298.2,131.6L298.2,131.6z M20.9,127.3
		c0,0-0.1,0-0.1,0c-0.6-0.1-1-0.6-1-1.2c0.2-2.5,0.6-5,1-7.5c0.1-0.6,0.6-1,1.2-0.9c0.6,0.1,1,0.6,0.9,1.2c-0.4,2.4-0.7,4.9-0.9,7.4
		C21.9,126.9,21.5,127.3,20.9,127.3L20.9,127.3z M296.4,116.7c-0.5,0-1-0.4-1.1-0.9c-0.4-2.4-0.9-4.9-1.5-7.3
		c-0.1-0.6,0.2-1.2,0.8-1.3c0.6-0.1,1.2,0.2,1.3,0.8c0.6,2.4,1.1,4.9,1.5,7.4c0.1,0.6-0.3,1.1-0.9,1.2
		C296.5,116.7,296.4,116.7,296.4,116.7L296.4,116.7z M23.2,112.5c-0.1,0-0.1,0-0.2,0c-0.6-0.1-1-0.7-0.8-1.3c0.5-2.5,1.1-4.9,1.8-7.4
		c0.2-0.6,0.7-0.9,1.3-0.8c0.6,0.2,0.9,0.7,0.8,1.3c-0.6,2.4-1.2,4.8-1.7,7.3C24.2,112.1,23.7,112.5,23.2,112.5L23.2,112.5z
		 M292.9,102.1c-0.5,0-0.9-0.3-1-0.8c-0.7-2.4-1.5-4.8-2.3-7.1c-0.2-0.6,0.1-1.2,0.7-1.4c0.6-0.2,1.2,0.1,1.4,0.7
		c0.8,2.4,1.6,4.8,2.3,7.2c0.2,0.6-0.2,1.2-0.7,1.3C293.1,102.1,293,102.1,292.9,102.1L292.9,102.1z M27.1,98c-0.1,0-0.2,0-0.3-0.1
		c-0.6-0.2-0.9-0.8-0.7-1.4c0.8-2.4,1.6-4.8,2.6-7.1c0.2-0.6,0.8-0.8,1.4-0.6c0.6,0.2,0.8,0.8,0.6,1.4c-0.9,2.3-1.7,4.7-2.5,7
		C28,97.7,27.6,98,27.1,98L27.1,98z M287.9,87.9c-0.4,0-0.8-0.2-1-0.7c-0.9-2.3-2-4.6-3-6.8c-0.3-0.5,0-1.2,0.5-1.4
		c0.5-0.3,1.2,0,1.4,0.5c1.1,2.3,2.1,4.6,3.1,6.9c0.2,0.5,0,1.2-0.6,1.4C288.2,87.9,288.1,87.9,287.9,87.9L287.9,87.9z M32.6,83.9
		c-0.1,0-0.3,0-0.4-0.1c-0.5-0.2-0.8-0.9-0.5-1.4c1-2.3,2.2-4.6,3.3-6.8c0.3-0.5,0.9-0.7,1.4-0.5c0.5,0.3,0.7,0.9,0.5,1.4
		c-1.1,2.2-2.2,4.5-3.3,6.7C33.4,83.7,33,83.9,32.6,83.9L32.6,83.9z M281.4,74.4c-0.4,0-0.7-0.2-0.9-0.6c-1.2-2.2-2.5-4.3-3.8-6.4
		c-0.3-0.5-0.2-1.2,0.3-1.5c0.5-0.3,1.2-0.2,1.5,0.3c1.3,2.1,2.6,4.3,3.8,6.5c0.3,0.5,0.1,1.2-0.4,1.5
		C281.8,74.4,281.6,74.4,281.4,74.4L281.4,74.4z M39.5,70.6c-0.2,0-0.4,0-0.5-0.1c-0.5-0.3-0.7-1-0.4-1.5c1.3-2.2,2.6-4.3,4-6.4
		c0.3-0.5,1-0.6,1.5-0.3c0.5,0.3,0.6,1,0.3,1.5c-1.4,2.1-2.7,4.2-4,6.3C40.2,70.4,39.9,70.6,39.5,70.6L39.5,70.6z M273.5,61.7
		c-0.3,0-0.7-0.2-0.9-0.5c-1.4-2-2.9-4-4.4-6c-0.4-0.5-0.3-1.1,0.2-1.5c0.5-0.4,1.1-0.3,1.5,0.2c1.5,2,3.1,4,4.5,6.1
		c0.3,0.5,0.2,1.2-0.3,1.5C273.9,61.6,273.7,61.7,273.5,61.7L273.5,61.7z M47.8,58.1c-0.2,0-0.4-0.1-0.6-0.2c-0.5-0.4-0.6-1-0.2-1.5
		c1.5-2,3.1-4,4.7-5.9c0.4-0.5,1.1-0.5,1.5-0.1c0.5,0.4,0.5,1.1,0.1,1.5c-1.6,1.9-3.1,3.9-4.6,5.9C48.5,57.9,48.2,58.1,47.8,58.1
		L47.8,58.1z M264.2,49.8c-0.3,0-0.6-0.1-0.8-0.4c-1.6-1.9-3.3-3.7-5.1-5.5c-0.4-0.4-0.4-1.1,0-1.5c0.4-0.4,1.1-0.4,1.5,0
		c1.7,1.8,3.5,3.7,5.1,5.6c0.4,0.4,0.3,1.1-0.1,1.5C264.7,49.7,264.5,49.8,264.2,49.8L264.2,49.8z M57.5,46.5c-0.3,0-0.5-0.1-0.7-0.3
		c-0.4-0.4-0.5-1.1-0.1-1.5c1.7-1.8,3.5-3.7,5.3-5.4c0.4-0.4,1.1-0.4,1.5,0c0.4,0.4,0.4,1.1,0,1.5c-1.8,1.7-3.5,3.5-5.2,5.3
		C58.1,46.4,57.8,46.5,57.5,46.5L57.5,46.5z M253.8,39c-0.3,0-0.5-0.1-0.7-0.3c-1.8-1.7-3.7-3.3-5.6-4.9c-0.5-0.4-0.5-1.1-0.1-1.5
		c0.4-0.5,1.1-0.5,1.5-0.1c1.9,1.6,3.9,3.3,5.7,5c0.4,0.4,0.5,1.1,0.1,1.5C254.3,38.9,254,39,253.8,39L253.8,39z M68.3,36.1
		c-0.3,0-0.6-0.1-0.8-0.4c-0.4-0.4-0.3-1.1,0.1-1.5c1.9-1.6,3.9-3.3,5.9-4.8c0.5-0.4,1.1-0.3,1.5,0.2c0.4,0.5,0.3,1.1-0.2,1.5
		c-2,1.5-3.9,3.1-5.8,4.7C68.8,36,68.6,36.1,68.3,36.1L68.3,36.1z M242.2,29.5c-0.2,0-0.4-0.1-0.6-0.2c-2-1.5-4.1-2.9-6.1-4.3
		c-0.5-0.3-0.6-1-0.3-1.5c0.3-0.5,1-0.6,1.5-0.3c2.1,1.4,4.2,2.8,6.2,4.4c0.5,0.4,0.6,1,0.2,1.5C242.8,29.3,242.5,29.5,242.2,29.5
		L242.2,29.5z M80.2,26.9c-0.3,0-0.7-0.2-0.9-0.5c-0.3-0.5-0.2-1.2,0.3-1.5c2.1-1.4,4.2-2.8,6.3-4.1c0.5-0.3,1.2-0.2,1.5,0.4
		c0.3,0.5,0.2,1.2-0.4,1.5c-2.1,1.3-4.2,2.7-6.2,4.1C80.6,26.8,80.4,26.9,80.2,26.9L80.2,26.9z M229.6,21.2c-0.2,0-0.4,0-0.5-0.1
		c-2.1-1.3-4.3-2.5-6.5-3.6c-0.5-0.3-0.7-0.9-0.5-1.4c0.3-0.5,0.9-0.7,1.4-0.5c2.2,1.2,4.5,2.4,6.6,3.7c0.5,0.3,0.7,1,0.4,1.5
		C230.4,21,230,21.2,229.6,21.2L229.6,21.2z M93,19c-0.4,0-0.7-0.2-0.9-0.6c-0.3-0.5-0.1-1.2,0.4-1.5c2.2-1.2,4.5-2.4,6.7-3.4
		c0.5-0.3,1.2,0,1.4,0.5c0.3,0.5,0,1.2-0.5,1.4c-2.2,1.1-4.5,2.2-6.6,3.4C93.3,18.9,93.1,19,93,19L93,19z M216.2,14.3
		c-0.1,0-0.3,0-0.4-0.1c-2.3-1-4.6-2-6.9-2.9c-0.6-0.2-0.8-0.8-0.6-1.4c0.2-0.6,0.8-0.8,1.4-0.6c2.4,0.9,4.7,1.9,7,2.9
		c0.5,0.2,0.8,0.9,0.5,1.4C217,14,216.7,14.3,216.2,14.3L216.2,14.3z M106.5,12.5c-0.4,0-0.8-0.3-1-0.7c-0.2-0.5,0-1.2,0.6-1.4
		c2.3-1,4.7-1.9,7.1-2.7c0.6-0.2,1.2,0.1,1.4,0.7c0.2,0.6-0.1,1.2-0.7,1.4c-2.3,0.8-4.7,1.7-7,2.6C106.8,12.5,106.6,12.5,106.5,12.5
		L106.5,12.5z M202.2,8.9c-0.1,0-0.2,0-0.3-0.1c-2.4-0.8-4.8-1.5-7.2-2.1c-0.6-0.2-0.9-0.7-0.8-1.3c0.2-0.6,0.7-0.9,1.3-0.8
		c2.4,0.6,4.9,1.4,7.3,2.1c0.6,0.2,0.9,0.8,0.7,1.4C203.1,8.6,202.6,8.9,202.2,8.9L202.2,8.9z M120.7,7.6c-0.5,0-0.9-0.3-1-0.8
		c-0.2-0.6,0.2-1.2,0.7-1.3c2.4-0.7,4.9-1.3,7.3-1.9c0.6-0.1,1.2,0.2,1.3,0.8c0.1,0.6-0.2,1.2-0.8,1.3c-2.4,0.6-4.8,1.2-7.2,1.9
		C120.9,7.6,120.8,7.6,120.7,7.6L120.7,7.6z M187.7,5c-0.1,0-0.1,0-0.2,0c-2.4-0.5-4.9-0.9-7.3-1.3c-0.6-0.1-1-0.6-0.9-1.2
		c0.1-0.6,0.6-1,1.2-0.9c2.5,0.4,5,0.8,7.5,1.3c0.6,0.1,1,0.7,0.8,1.3C188.6,4.7,188.2,5,187.7,5L187.7,5z M135.3,4.2
		c-0.5,0-1-0.4-1.1-0.9c-0.1-0.6,0.3-1.1,0.9-1.2c2.5-0.4,5-0.8,7.5-1.1c0.6-0.1,1.1,0.4,1.2,0.9c0.1,0.6-0.4,1.1-0.9,1.2
		c-2.5,0.3-4.9,0.7-7.4,1.1C135.5,4.2,135.4,4.2,135.3,4.2L135.3,4.2z M172.8,2.8c0,0-0.1,0-0.1,0c-2.5-0.2-5-0.4-7.4-0.5
		c-0.6,0-1.1-0.5-1-1.1c0-0.6,0.5-1.1,1.1-1c2.5,0.1,5.1,0.3,7.6,0.5c0.6,0.1,1,0.6,1,1.2C173.8,2.4,173.3,2.8,172.8,2.8L172.8,2.8z
		 M150.3,2.4c-0.6,0-1-0.4-1.1-1c0-0.6,0.4-1.1,1-1.1c2.5-0.2,5.1-0.3,7.6-0.3c0,0,0,0,0,0c0.6,0,1.1,0.5,1.1,1.1
		c0,0.6-0.5,1.1-1.1,1.1C155.3,2.2,152.8,2.3,150.3,2.4C150.3,2.4,150.3,2.4,150.3,2.4L150.3,2.4z"/>
	
	<path class="gear" fill="#93CBD6" d="M63.2,257.2h-2c-0.5,0-1-0.4-1.1-0.8l-0.4-0.9c-0.2-0.4-0.1-1,0.2-1.4l1.4-1.4c0.3-0.3,0.3-0.9,0-1.2
		l-2.2-2.2c-0.3-0.3-0.9-0.3-1.2,0l-1.4,1.4c-0.3,0.3-1,0.4-1.4,0.2l-0.9-0.4c-0.4-0.1-0.8-0.7-0.8-1.1v-2c0-0.5-0.4-0.9-0.9-0.9
		h-3.2c-0.5,0-0.9,0.4-0.9,0.9v2c0,0.5-0.4,1-0.8,1.1l-0.9,0.4c-0.4,0.2-1,0.1-1.4-0.2l-1.4-1.4c-0.3-0.3-0.9-0.3-1.2,0l-2.2,2.2
		c-0.3,0.3-0.3,0.9,0,1.2l1.4,1.4c0.3,0.3,0.4,1,0.2,1.4l-0.4,0.9c-0.2,0.4-0.7,0.8-1.1,0.8h-2c-0.5,0-0.9,0.4-0.9,0.9v3.2
		c0,0.5,0.4,0.9,0.9,0.9h2c0.5,0,1,0.4,1.1,0.8l0.4,0.9c0.2,0.4,0.1,1-0.2,1.4l-1.4,1.4c-0.3,0.3-0.3,0.9,0,1.2l2.2,2.2
		c0.3,0.3,0.9,0.3,1.2,0l1.4-1.4c0.3-0.3,1-0.4,1.4-0.2l0.9,0.4c0.5,0.2,0.8,0.7,0.8,1.1v2c0,0.5,0.4,0.9,0.9,0.9h3.2
		c0.5,0,0.9-0.4,0.9-0.9v-2c0-0.5,0.4-1,0.8-1.1l0.9-0.4c0.4-0.2,1-0.1,1.4,0.2l1.4,1.4c0.3,0.3,0.9,0.3,1.2,0l2.2-2.2
		c0.3-0.3,0.3-0.9,0-1.2l-1.4-1.4c-0.3-0.3-0.4-1-0.2-1.4l0.4-0.9c0.1-0.5,0.7-0.8,1.1-0.8h2c0.5,0,0.9-0.4,0.9-0.9V258
		C64,257.5,63.7,257.2,63.2,257.2z M50.8,263.8c-2.3,0-4.2-1.9-4.2-4.2c0-2.3,1.9-4.2,4.2-4.2c2.3,0,4.2,1.9,4.2,4.2
		C55,261.9,53.1,263.8,50.8,263.8z"/>
	<g class="love">
		<circle fill="#D1563D" cx="274" cy="67.1" r="29.1"/>	
		<path fill="#FFFFFF" d="M279.6,54.2c-2.7,0-5.1,1.8-6.4,4.3c-1.3-2.5-3.8-4.2-6.5-4.2c-4.1,0.1-7.5,4-7.4,8.9c0,1,0.2,1.9,0.4,2.7
			c0.6,2.8,4.8,7.3,8.7,11c1.9,1.8,5.1,4.3,5.1,4.3c1.3-1,3.1-2.6,4.9-4.4c3.8-3.8,7.9-8.4,8.4-11.2c0.2-0.9,0.4-1.8,0.3-2.7
			C287.2,58,283.8,54.1,279.6,54.2z"/>
	</g>

	<g class="music">
		<circle fill="#BEDFEF" cx="36.5" cy="203.1" r="36.5"/>
		<path fill="#93CBD6" d="M54.2,187.5C54.2,187.5,54.2,187.5,54.2,187.5c-0.4-0.3-0.8-0.4-1.2-0.3l-12.1,2.9l0,0l-8.9,2.2l-7.2-7.2v0
			H23v10.2c-0.2,0-0.4-0.1-0.6-0.1c-0.7,0-1.5,0.2-2.3,0.6c-1.8,0.8-3.4,2.6-3.1,4.2c0.1,0.6,0.5,1,1,1.3l9.4,9.4
			c-0.5,0.1-1,0.3-1.4,0.6c-2.9,1.4-5.7,4.3-5.2,6.9c0.1,0.7,0.5,1.3,1,1.7l0,0L41,239.4c17.1-2.1,30.5-15.9,31.9-33.2L54.2,187.5
			L54.2,187.5z"/>	
		<path fill="#CE4033" d="M54.7,208.2L54.7,208.2l0-13v-6.7c0-0.4-0.2-0.9-0.5-1.1c-0.3-0.3-0.8-0.4-1.2-0.3l-21.2,5.1
			c-0.6,0.2-1.1,0.7-1.1,1.4v6.7v10.1c-0.3-0.1-0.6-0.1-1-0.1c-1.2,0-2.4,0.3-3.7,0.9c-2.9,1.4-5.7,4.3-5.2,6.9
			c0.3,1.7,1.8,2.7,3.8,2.7c1.2,0,2.4-0.3,3.7-0.9c2.8-1.3,5.5-4.1,5.2-6.7h0v-11.9l18.3-4.4v8.3c-0.3-0.1-0.6-0.1-1-0.1
			c-1.2,0-2.4,0.3-3.7,0.9c-2.9,1.4-5.7,4.3-5.2,6.9c0.3,1.7,1.8,2.7,3.8,2.7c1.2,0,2.4-0.3,3.7-0.9
			C52.3,213.6,55,210.9,54.7,208.2z"/>
		<path fill="#D1563D" d="M30.7,193.8v6.7v10.1c-0.3-0.1-0.6-0.1-1-0.1c-1.2,0-2.4,0.3-3.7,0.9c-2.9,1.4-5.7,4.3-5.2,6.9
			c0.3,1.7,1.8,2.7,3.8,2.7c1.2,0,2.4-0.3,3.7-0.9c2.8-1.3,5.5-4.1,5.2-6.7h0v-11.9l7.3-1.8v-9.6l-9.1,2.2
			C31.1,192.5,30.7,193.1,30.7,193.8z"/>
		<path fill="#CE4033" d="M23.9,197.1c0.2,1-1,2.5-2.7,3.3c-1.7,0.8-3.2,0.6-3.4-0.4c-0.2-1,1-2.5,2.7-3.3
			C22.2,195.9,23.7,196.1,23.9,197.1z"/>
		<path fill="#CE4033" d="M19.3,201.7c-1.2,0-2.1-0.6-2.3-1.6c-0.3-1.6,1.4-3.4,3.1-4.2c0.8-0.4,1.6-0.6,2.3-0.6
			c1.2,0,2.1,0.6,2.3,1.6c0.3,1.6-1.4,3.4-3.1,4.2C20.8,201.5,20,201.7,19.3,201.7L19.3,201.7z M22.4,197.1c-0.4,0-1,0.1-1.5,0.4
			c-1.4,0.7-2.3,1.8-2.2,2.3c0,0.2,0.4,0.2,0.6,0.2c0.4,0,1-0.1,1.5-0.4c1.4-0.7,2.3-1.8,2.2-2.3C23,197.1,22.6,197.1,22.4,197.1
			L22.4,197.1z"/>
		<polygon fill="#CE4033" points="24.8,197.1 23,197.1 23,185.1 24.8,185.1 24.8,197.1 				"/>
	</g>

	<g>
		<ellipse opacity="0.15" fill="#262424" cx="162.5" cy="308.1" rx="110.5" ry="19.1"/>
		<g>
			<g>
				<path fill="#253143" d="M207.6,49.3h-90.1c-10.9,0-19.8,8.9-19.8,19.8v215.7c0,10.9,8.9,19.8,19.8,19.8h90.1
					c10.9,0,19.8-8.9,19.8-19.8V69.1C227.4,58.2,218.5,49.3,207.6,49.3z"/>
				<path fill="#FFFFFF" d="M145.5,64.6h34c1,0,1.7,0.8,1.7,1.7c0,1-0.8,1.7-1.7,1.7h-34c-1,0-1.7-0.8-1.7-1.7
					C143.8,65.4,144.6,64.6,145.5,64.6z"/>
				<path fill="#FFFFFF" d="M162.5,290c-6.3,0-11.4-5.1-11.4-11.4c0-6.3,5.1-11.4,11.4-11.4c6.3,0,11.4,5.1,11.4,11.4
					C174,284.8,168.9,290,162.5,290z"/>
				<rect x="106.4" y="88.2" fill="#D8D9DD" width="112.3" height="166.4"/>
				<path fill="#253143" d="M162.5,270.6c-4.4,0-7.9,3.6-7.9,7.9c0,4.4,3.6,7.9,7.9,7.9c4.4,0,7.9-3.6,7.9-7.9
					C170.5,274.1,166.9,270.6,162.5,270.6z"/>
			</g>
		</g>
		<g>
			<g>
				<g>
					<path fill="#153C3A" d="M218.7,88.2H106.4v18.6h112.3V88.2L218.7,88.2z"/>
				</g>
			</g>
			<g>
				<g>
					<g>
						<path fill="#4BCDCD" d="M218.7,106.1H106.4v74.4h112.3V106.1L218.7,106.1z"/>
					</g>
				</g>
			</g>
			<circle fill="#8F9D3A" cx="196.3" cy="233.7" r="14.8"/>
		</g>
	</g>

	<g class="like">
		<circle fill="#3194BD" cx="56.9" cy="44.5" r="20.5"/>			
		<rect x="48.6" y="43.2" transform="matrix(0.9593 -0.2823 0.2823 0.9593 -11.4909 16.2044)" fill="#FFFFFF" width="3.8" height="9.5"/>
		<path fill="#FFFFFF" d="M66.4,42.7c0-1.2-0.9-2.1-2.1-2.1c0,0-4.9,0.1-4.8-1c0-0.3,0-0.6,0-0.9c0-0.4,0.1-0.8,0.1-1.1
				c0.2-2.4-0.6-3.7-1.4-3.7c-0.2,0-1.5,0.1-1.4,0.8c0,0.3,0.2,2-0.3,3.5c-0.9,1.6-4.1,5-5,5.2l2.3,6.3c0,0,0.9-0.5,3.5-0.2
				c1.5,0.1,3,0.2,3.8,0.3c0.8,0.1,2.1,0,2.4-0.7c0.1-0.2,0.1-0.3,0.1-0.5c0.7-0.2,1.2-0.8,1.2-1.6c0-0.1,0-0.3,0-0.4
				c0.5-0.3,0.8-0.8,0.9-1.4c0-0.3,0-0.6-0.1-0.8C66.1,43.8,66.4,43.3,66.4,42.7z"/>
		
	</g>
</svg>
