<!-- Generator: Adobe Illustrator 18.0.0, SVG Export Plug-In  -->
<svg version="1.1"
	 xmlns="http://www.w3.org/2000/svg" xmlns:xlink="http://www.w3.org/1999/xlink" xmlns:a="http://ns.adobe.com/AdobeSVGViewerExtensions/3.0/"
	 x="0px" y="0px" width="342.2px" height="449.3px" viewBox="0 0 342.2 449.3" enable-background="new 0 0 342.2 449.3"
	 xml:space="preserve">
	 <style>
 		@keyframes spin {
 			0% {
 				transform: rotate(0deg)
 			}

 			100% {
 				transform: rotate(360deg)
 			}
 		}

 		@keyframes spin-reverse {
 			0% {
 				transform: rotate(0deg)
 			}

 			100% {
 				transform: rotate(-360deg)
 			}
 		}

 		@keyframes scale-up {
 			0% {
 				transform: scale(0)
 			}

 			5% {
 				transform: scale(1)
 			}

 			75% {
 				transform: scale(1)
 			}

 			80% {
 				transform: scale(0)
 			}
 		}



 		.gear {
 			transform-origin: center;
 			animation: spin linear 6s infinite;
 		}

 		.gear.-reverse {
 			transform-origin: center;
 			animation: spin-reverse linear 6s infinite;
 		}

 		.arrows > g {
 			transform: scale(0);
 			transform-origin: left bottom;
 			animation: scale-up ease-in 4s infinite;
 		}


	 </style>
	<g>
		<g>
			<path fill="#127CC1" d="M45.6,204.1c-0.1,0-0.1,0-0.2,0c-2-0.5-4.1-1.1-6-1.7c-0.5-0.1-0.7-0.6-0.6-1.1c0.1-0.5,0.6-0.7,1.1-0.6
				c1.9,0.6,3.9,1.1,5.9,1.6c0.5,0.1,0.8,0.6,0.6,1.1C46.3,203.8,46,204.1,45.6,204.1L45.6,204.1z M33.8,200.4c-0.1,0-0.2,0-0.3-0.1
				c-2-0.8-3.9-1.6-5.7-2.5c-0.4-0.2-0.6-0.7-0.4-1.2c0.2-0.4,0.7-0.6,1.2-0.4c1.8,0.8,3.7,1.7,5.6,2.4c0.5,0.2,0.7,0.7,0.5,1.1
				C34.5,200.2,34.1,200.4,33.8,200.4L33.8,200.4z M22.6,195.1c-0.2,0-0.3,0-0.4-0.1c-1.8-1.1-3.6-2.2-5.2-3.4
				c-0.4-0.3-0.5-0.8-0.2-1.2c0.3-0.4,0.8-0.5,1.2-0.2c1.6,1.2,3.3,2.3,5.1,3.3c0.4,0.2,0.6,0.8,0.3,1.2
				C23.2,194.9,22.9,195.1,22.6,195.1L22.6,195.1z M12.7,187.8c-0.2,0-0.4-0.1-0.6-0.2c-1.6-1.5-3-3-4.3-4.6
				c-0.3-0.4-0.2-0.9,0.1-1.2c0.4-0.3,0.9-0.2,1.2,0.1c1.2,1.5,2.6,3,4.1,4.4c0.4,0.3,0.4,0.9,0,1.2C13.2,187.7,13,187.8,12.7,187.8
				L12.7,187.8z M5.2,178.1c-0.3,0-0.6-0.2-0.8-0.5c-1-1.9-1.9-3.8-2.5-5.8c-0.2-0.5,0.1-1,0.6-1.1c0.5-0.2,1,0.1,1.1,0.6
				c0.6,1.9,1.4,3.7,2.4,5.5c0.2,0.4,0.1,1-0.3,1.2C5.4,178.1,5.3,178.1,5.2,178.1L5.2,178.1z M1.3,166.5c-0.4,0-0.8-0.3-0.9-0.8
				c-0.3-1.8-0.4-3.6-0.4-5.5c0-0.3,0-0.5,0-0.8c0-0.5,0.4-0.9,0.9-0.9c0.5,0,0.9,0.4,0.9,0.9c0,0.3,0,0.5,0,0.8
				c0,1.8,0.1,3.5,0.4,5.2c0.1,0.5-0.3,0.9-0.7,1C1.3,166.5,1.3,166.5,1.3,166.5L1.3,166.5z M1.5,154.2c0,0-0.1,0-0.1,0
				c-0.5-0.1-0.8-0.5-0.7-1c0.3-2,0.8-4.1,1.4-6.1c0.1-0.5,0.6-0.7,1.1-0.6c0.5,0.1,0.7,0.6,0.6,1.1c-0.6,2-1,4-1.3,5.9
				C2.3,153.9,1.9,154.2,1.5,154.2L1.5,154.2z M4.8,142.3c-0.1,0-0.2,0-0.3-0.1c-0.5-0.2-0.7-0.7-0.5-1.1c0.7-1.9,1.6-3.8,2.5-5.7
				c0.2-0.4,0.7-0.6,1.2-0.4c0.4,0.2,0.6,0.7,0.4,1.2c-0.9,1.9-1.7,3.8-2.5,5.6C5.5,142.1,5.1,142.3,4.8,142.3L4.8,142.3z
				 M10.2,131.2c-0.1,0-0.3,0-0.4-0.1c-0.4-0.2-0.6-0.8-0.3-1.2c1-1.7,2.1-3.5,3.2-5.3c0.3-0.4,0.8-0.5,1.2-0.3
				c0.4,0.3,0.5,0.8,0.3,1.2c-1.1,1.8-2.2,3.5-3.2,5.2C10.8,131,10.5,131.2,10.2,131.2L10.2,131.2z M16.9,120.8
				c-0.2,0-0.4-0.1-0.5-0.2c-0.4-0.3-0.5-0.8-0.2-1.2c0.9-1.3,1.8-2.5,2.8-3.8l0.9-1.2c0.3-0.4,0.8-0.5,1.2-0.2
				c0.4,0.3,0.5,0.8,0.2,1.2l-0.9,1.2c-1,1.3-1.9,2.5-2.8,3.8C17.4,120.7,17.1,120.8,16.9,120.8L16.9,120.8z M199.6,117.9
				c-0.3,0-0.5-0.1-0.7-0.3c-1.3-1.6-2.7-3.2-4-4.7c-0.3-0.4-0.3-0.9,0.1-1.2c0.4-0.3,0.9-0.3,1.2,0.1c1.3,1.5,2.6,3.1,4,4.7
				c0.3,0.4,0.3,0.9-0.1,1.2C200,117.9,199.8,117.9,199.6,117.9L199.6,117.9z M24.2,110.9c-0.2,0-0.4-0.1-0.5-0.2
				c-0.4-0.3-0.5-0.8-0.2-1.2c1.2-1.6,2.4-3.3,3.6-5c0.3-0.4,0.8-0.5,1.2-0.2c0.4,0.3,0.5,0.8,0.2,1.2c-1.2,1.7-2.5,3.4-3.6,5
				C24.8,110.8,24.5,110.9,24.2,110.9L24.2,110.9z M191.5,108.6c-0.2,0-0.5-0.1-0.7-0.3c-1.4-1.5-2.8-3.1-4.2-4.5
				c-0.3-0.4-0.3-0.9,0-1.2c0.4-0.3,0.9-0.3,1.2,0c1.4,1.5,2.8,3,4.2,4.6c0.3,0.4,0.3,0.9-0.1,1.2
				C191.9,108.5,191.7,108.6,191.5,108.6L191.5,108.6z M31.5,100.9c-0.2,0-0.3-0.1-0.5-0.2c-0.4-0.3-0.5-0.8-0.2-1.2
				c1.2-1.7,2.3-3.4,3.5-5.1c0.3-0.4,0.8-0.5,1.2-0.2c0.4,0.3,0.5,0.8,0.2,1.2c-1.2,1.7-2.3,3.4-3.5,5.1
				C32,100.8,31.7,100.9,31.5,100.9L31.5,100.9z M183,99.6c-0.2,0-0.4-0.1-0.6-0.3c-1.5-1.5-3-2.9-4.4-4.2c-0.4-0.3-0.4-0.9-0.1-1.2
				c0.3-0.4,0.9-0.4,1.2-0.1c1.5,1.4,3,2.8,4.5,4.3c0.3,0.3,0.3,0.9,0,1.2C183.5,99.6,183.2,99.6,183,99.6L183,99.6z M173.9,91.3
				c-0.2,0-0.4-0.1-0.6-0.2c-1.6-1.4-3.2-2.6-4.8-3.8c-0.4-0.3-0.5-0.8-0.2-1.2c0.3-0.4,0.8-0.5,1.2-0.2c1.6,1.2,3.2,2.5,4.9,3.9
				c0.4,0.3,0.4,0.9,0.1,1.2C174.4,91.2,174.2,91.3,173.9,91.3L173.9,91.3z M38.3,90.6c-0.2,0-0.3,0-0.5-0.1
				c-0.4-0.3-0.5-0.8-0.3-1.2c1.1-1.8,2.2-3.5,3.3-5.2c0.3-0.4,0.8-0.5,1.2-0.3c0.4,0.3,0.5,0.8,0.3,1.2c-1,1.7-2.1,3.5-3.3,5.3
				C38.9,90.5,38.6,90.6,38.3,90.6L38.3,90.6z M164,84c-0.2,0-0.3,0-0.5-0.1c-1.8-1.1-3.5-2.1-5.3-3c-0.4-0.2-0.6-0.8-0.4-1.2
				c0.2-0.4,0.8-0.6,1.2-0.4c1.8,0.9,3.6,2,5.4,3.1c0.4,0.3,0.5,0.8,0.3,1.2C164.6,83.9,164.3,84,164,84L164,84z M66.8,83.6
				c-1.7,0-3.5-0.2-5.4-0.5c-0.5-0.1-0.8-0.5-0.7-1c0.1-0.5,0.5-0.8,1-0.7c2.1,0.4,4.1,0.5,6,0.5c0.5,0,0.9,0.4,0.9,0.9
				c0,0.5-0.4,0.9-0.9,0.9C67.4,83.6,67.1,83.6,66.8,83.6L66.8,83.6z M73.8,83c-0.4,0-0.8-0.3-0.9-0.8c-0.1-0.5,0.3-0.9,0.8-1
				c2-0.2,4-0.5,6.1-0.7c0.5-0.1,0.9,0.3,1,0.8c0.1,0.5-0.3,0.9-0.8,1C78,82.6,75.9,82.8,73.8,83C73.9,83,73.9,83,73.8,83L73.8,83z
				 M55.6,81.6c-0.1,0-0.2,0-0.3,0c-1.9-0.7-3.9-1.5-5.8-2.4c-0.4-0.2-0.6-0.7-0.4-1.2c0.2-0.4,0.7-0.6,1.2-0.4
				c1.9,0.9,3.8,1.7,5.6,2.3c0.5,0.2,0.7,0.7,0.6,1.1C56.3,81.4,55.9,81.6,55.6,81.6L55.6,81.6z M86.1,81.4c-0.4,0-0.8-0.3-0.9-0.8
				c-0.1-0.5,0.3-0.9,0.7-1c2.1-0.3,4.1-0.6,6.1-1c0.5-0.1,0.9,0.2,1,0.7c0.1,0.5-0.2,0.9-0.7,1c-2,0.3-4,0.7-6.1,1
				C86.2,81.4,86.1,81.4,86.1,81.4L86.1,81.4z M44.8,80.1c-0.1,0-0.3,0-0.4-0.1c-0.4-0.2-0.6-0.8-0.3-1.2c1.1-1.8,2-3.7,3-5.4
				c0.2-0.4,0.8-0.6,1.2-0.4c0.4,0.2,0.6,0.8,0.4,1.2c-0.9,1.8-1.9,3.6-3,5.5C45.4,79.9,45.1,80.1,44.8,80.1L44.8,80.1z M98.3,79.4
				c-0.4,0-0.8-0.3-0.9-0.7c-0.1-0.5,0.2-0.9,0.7-1c1.8-0.3,3.6-0.6,5.4-1l0.7-0.1c0.5-0.1,0.9,0.2,1,0.7c0.1,0.5-0.2,0.9-0.7,1
				l-0.7,0.1c-1.7,0.3-3.5,0.6-5.4,1C98.4,79.4,98.3,79.4,98.3,79.4L98.3,79.4z M153,78.4c-0.1,0-0.2,0-0.3-0.1
				c-1.9-0.7-3.8-1.4-5.8-1.8c-0.5-0.1-0.8-0.6-0.6-1.1c0.1-0.5,0.6-0.8,1.1-0.6c2,0.5,4,1.2,6,1.9c0.5,0.2,0.7,0.7,0.5,1.1
				C153.7,78.2,153.4,78.4,153,78.4L153,78.4z M110.4,77.3c-0.4,0-0.8-0.3-0.9-0.7c-0.1-0.5,0.2-0.9,0.7-1c2.3-0.4,4.3-0.7,6.1-1
				c0.5-0.1,0.9,0.3,1,0.7c0.1,0.5-0.3,0.9-0.7,1c-1.8,0.3-3.8,0.6-6.1,1C110.5,77.3,110.5,77.3,110.4,77.3L110.4,77.3z M44.4,76.3
				c-0.2,0-0.3,0-0.5-0.1c-1.8-1.1-3.5-2.3-5.2-3.5c-0.4-0.3-0.5-0.8-0.2-1.2c0.3-0.4,0.8-0.5,1.2-0.2c1.6,1.2,3.3,2.4,5,3.4
				c0.4,0.3,0.5,0.8,0.3,1.2C45,76.1,44.7,76.3,44.4,76.3L44.4,76.3z M122.6,75.5c-0.4,0-0.8-0.3-0.9-0.8c-0.1-0.5,0.3-0.9,0.8-1
				c2.2-0.2,4.2-0.4,6.2-0.5c0.5,0,0.9,0.3,0.9,0.8c0,0.5-0.3,0.9-0.8,0.9C126.9,75.1,124.9,75.2,122.6,75.5
				C122.7,75.5,122.7,75.5,122.6,75.5L122.6,75.5z M141.1,75.4c0,0-0.1,0-0.1,0c-1.9-0.3-4-0.4-6.1-0.5c-0.5,0-0.9-0.4-0.9-0.9
				c0-0.5,0.4-0.9,0.9-0.9c2.1,0.1,4.2,0.2,6.2,0.5c0.5,0.1,0.8,0.5,0.8,1C141.9,75,141.5,75.4,141.1,75.4L141.1,75.4z M50.5,69.1
				c-0.1,0-0.2,0-0.4-0.1c-0.4-0.2-0.6-0.7-0.4-1.2c0.9-2,1.7-3.9,2.3-5.6c0.2-0.5,0.7-0.7,1.1-0.5c0.5,0.2,0.7,0.7,0.5,1.1
				c-0.7,1.8-1.5,3.7-2.4,5.8C51.1,68.9,50.8,69.1,50.5,69.1L50.5,69.1z M34.6,68.9c-0.2,0-0.4-0.1-0.6-0.2c-1.6-1.5-3.1-3-4.4-4.5
				c-0.3-0.4-0.3-0.9,0.1-1.2c0.4-0.3,0.9-0.3,1.2,0.1c1.2,1.5,2.7,2.9,4.2,4.4c0.4,0.3,0.4,0.9,0.1,1.2C35,68.8,34.8,68.9,34.6,68.9
				L34.6,68.9z M26.7,59.4c-0.3,0-0.6-0.2-0.8-0.4c-1.2-2.1-2-4.1-2.3-6c-0.1-0.5,0.2-0.9,0.7-1c0.5-0.1,0.9,0.2,1,0.7
				c0.3,1.7,1,3.5,2.1,5.4c0.2,0.4,0.1,1-0.3,1.2C27,59.4,26.8,59.4,26.7,59.4L26.7,59.4z M54.6,57.5c-0.1,0-0.1,0-0.2,0
				c-0.5-0.1-0.8-0.6-0.7-1.1c0.5-2,0.7-3.8,0.7-5.4c0-0.2,0-0.3,0-0.5c0-0.5,0.4-0.9,0.9-0.9c0.5,0,0.9,0.4,0.9,0.9
				c0,0.2,0,0.4,0,0.6c0,1.7-0.2,3.7-0.7,5.8C55.4,57.2,55,57.5,54.6,57.5L54.6,57.5z M25.5,47.8c-0.2,0-0.3,0-0.5-0.1
				c-0.4-0.3-0.5-0.8-0.3-1.2c1.1-1.7,2.8-3.1,5.2-4.1c0.4-0.2,1,0,1.2,0.5c0.2,0.4,0,1-0.5,1.2c-2,0.9-3.5,2-4.4,3.4
				C26.1,47.6,25.8,47.8,25.5,47.8L25.5,47.8z M53.6,45.6c-0.3,0-0.5-0.1-0.7-0.4c-1-1.4-2.6-2.4-4.6-2.9c-0.5-0.1-0.7-0.6-0.6-1.1
				c0.1-0.5,0.6-0.7,1.1-0.6c2.4,0.7,4.3,1.9,5.6,3.6c0.3,0.4,0.2,0.9-0.2,1.2C53.9,45.5,53.8,45.6,53.6,45.6L53.6,45.6z M36.2,42.5
				c-0.4,0-0.8-0.3-0.9-0.7c-0.1-0.5,0.2-0.9,0.7-1c2.3-0.4,4.4-0.7,6.3-0.7c0.5,0,0.9,0.4,0.9,0.8c0,0.5-0.4,0.9-0.8,0.9
				c-1.8,0.1-3.8,0.3-6,0.7C36.4,42.5,36.3,42.5,36.2,42.5L36.2,42.5z"/>
		</g>
	</g>

	<g>
		<g>
			<path fill="#CE4033" d="M208.6,116.8h-4.8c-0.3-1.7-0.8-3.3-1.4-4.9l4-2.3c1-0.6,1.3-1.8,0.7-2.8l-4-7c-0.6-1-1.8-1.3-2.7-0.7
				l-4.2,2.4c-1.1-1.3-2.3-2.5-3.6-3.6l2.3-4c0.6-1,0.2-2.2-0.7-2.7l-7-4c-1-0.6-2.2-0.2-2.7,0.7l-2.4,4.2c-1.6-0.5-3.3-1-4.9-1.3
				v-4.6c0-1.1-0.9-2-2-2h-8c-1.1,0-2,0.9-2,2V91c-1.7,0.3-3.3,0.8-4.9,1.4l-2.3-4c-0.6-1-1.8-1.3-2.8-0.7l-7,4
				c-1,0.6-1.3,1.8-0.7,2.7l2.4,4.2c-1.3,1.1-2.5,2.3-3.6,3.6l-4-2.3c-1-0.6-2.2-0.2-2.8,0.7l-4,7c-0.6,1-0.2,2.2,0.7,2.7l4.2,2.4
				c-0.5,1.6-1,3.2-1.2,4.9h-4.6c-1.1,0-2,0.9-2,2v8c0,1.1,0.9,2,2,2h4.8c0.3,1.7,0.8,3.3,1.4,4.9l-4,2.3c-1,0.6-1.3,1.8-0.7,2.7l4,7
				c0.6,1,1.8,1.3,2.7,0.7l4.2-2.4c1.1,1.3,2.3,2.5,3.6,3.6l-2.3,4c-0.6,1-0.2,2.2,0.7,2.7l7,4c1,0.6,2.2,0.2,2.7-0.7l2.4-4.2
				c1.6,0.5,3.2,1,4.9,1.2v4.6c0,1.1,0.9,2,2,2l8,0c1.1,0,2-0.9,2-2v-4.8c1.7-0.3,3.3-0.8,4.9-1.4l2.3,4c0.6,1,1.8,1.3,2.7,0.7l7-4
				c1-0.5,1.3-1.8,0.7-2.7l-2.4-4.2c1.3-1.1,2.5-2.3,3.6-3.6l4,2.3c1,0.6,2.2,0.2,2.7-0.7l4-7c0.6-1,0.2-2.2-0.7-2.7l-4.2-2.4
				c0.5-1.6,1-3.2,1.3-4.9h4.6c1.1,0,2-0.9,2-2v-8C210.6,117.7,209.7,116.8,208.6,116.8z M171.5,137.4c-7.8,0-14.1-6.3-14.1-14.1
				c0-7.8,6.3-14.1,14.1-14.1c7.8,0,14.1,6.3,14.1,14.1C185.7,131.1,179.4,137.4,171.5,137.4z"/>
		</g>
		<path fill="#D1563D" d="M170.8,144.1c-11.2-0.4-20.1-9.6-20.1-20.8c0-11.3,9-20.5,20.1-20.8V84.2h-3.8c-1.1,0-2,0.9-2,2V91
			c-1.7,0.3-3.3,0.8-4.9,1.4l-2.3-4c-0.6-1-1.8-1.3-2.8-0.7l-7,4c-1,0.6-1.3,1.8-0.7,2.7l2.4,4.2c-1.3,1.1-2.5,2.3-3.6,3.6l-4-2.3
			c-1-0.6-2.2-0.2-2.8,0.7l-4,7c-0.6,1-0.2,2.2,0.7,2.7l4.2,2.4c-0.5,1.6-1,3.2-1.2,4.9h-4.6c-1.1,0-2,0.9-2,2v8c0,1.1,0.9,2,2,2h4.8
			c0.3,1.7,0.8,3.3,1.4,4.9l-4,2.3c-1,0.6-1.3,1.8-0.7,2.7l4,7c0.6,1,1.8,1.3,2.7,0.7l4.2-2.4c1.1,1.3,2.3,2.5,3.6,3.6l-2.3,4
			c-0.6,1-0.2,2.2,0.7,2.7l7,4c1,0.6,2.2,0.2,2.7-0.7l2.4-4.2c1.6,0.5,3.2,1,4.9,1.2v4.6c0,1.1,0.9,2,2,2l2.9,0V144.1z"/>
		<path fill="#D1563D" d="M171.5,102.9v6.2c7.8,0,14.1,6.3,14.1,14.1c0,7.8-6.3,14.1-14.1,14.1v6.2c11.2,0,20.4-9.1,20.4-20.4
			C191.9,112,182.8,102.9,171.5,102.9z"/>
	</g>

	<g class="gears">
		<g class="gear">
			<path fill="#253143" d="M280.1,254.3c16.2-29.2,5.6-65.9-23.6-82.1c-29.2-16.2-65.9-5.6-82.1,23.6c-16.2,29.2-5.6,65.9,23.6,82.1
				C227.2,294,264,283.5,280.1,254.3z M214.2,217.8c4-7.2,13.1-9.9,20.4-5.9c7.2,4,9.9,13.1,5.9,20.4c-4,7.2-13.1,9.9-20.4,5.9
				C212.8,234.2,210.2,225,214.2,217.8z"/>
			<g>
				<path fill="#253143" d="M270.9,265.7c-0.3-0.3-0.4-0.7-0.1-1.1l3.8-4.8c0.3-0.3,0.7-0.4,1.1-0.1l4.5,3.6c0.3,0.3,0.4,0.7,0.1,1.1
					l-3.8,4.8c-0.3,0.3-0.7,0.4-1.1,0.1L270.9,265.7z"/>
				<path fill="#253143" d="M282.2,248.3c-0.4-0.1-0.6-0.6-0.5-1l1.9-5.8c0.1-0.4,0.6-0.6,1-0.5l5.5,1.8c0.4,0.1,0.6,0.6,0.5,1
					l-1.9,5.8c-0.1,0.4-0.6,0.6-1,0.5L282.2,248.3z"/>
				<path fill="#253143" d="M286.9,228.1c-0.4,0-0.8-0.3-0.8-0.7l-0.2-6.1c0-0.4,0.3-0.8,0.7-0.8l5.8-0.2c0.4,0,0.8,0.3,0.8,0.7
					l0.2,6.1c0,0.4-0.3,0.8-0.7,0.8L286.9,228.1z"/>
				<path fill="#253143" d="M284.3,207.6c-0.4,0.2-0.8,0-1-0.4l-2.2-5.7c-0.2-0.4,0-0.8,0.4-1l5.4-2.1c0.4-0.2,0.8,0,1,0.4l2.2,5.7
					c0.1,0.4,0,0.8-0.4,1L284.3,207.6z"/>
				<path fill="#253143" d="M274.9,189.1c-0.3,0.3-0.8,0.3-1.1-0.1l-4.1-4.6c-0.3-0.3-0.2-0.8,0.1-1.1l4.4-3.9
					c0.3-0.3,0.8-0.2,1.1,0.1l4.1,4.6c0.3,0.3,0.2,0.8-0.1,1.1L274.9,189.1z"/>
				<path fill="#253143" d="M259.8,175c-0.2,0.4-0.7,0.5-1,0.3l-5.4-2.9c-0.4-0.2-0.5-0.7-0.3-1l2.8-5.1c0.2-0.4,0.7-0.5,1-0.3
					l5.4,2.9c0.4,0.2,0.5,0.7,0.3,1L259.8,175z"/>
				<path fill="#253143" d="M240.7,167c-0.1,0.4-0.4,0.7-0.9,0.6l-6-0.9c-0.4-0.1-0.7-0.5-0.6-0.9l0.9-5.7c0.1-0.4,0.5-0.7,0.9-0.6
					l6.1,0.9c0.4,0.1,0.7,0.5,0.6,0.9L240.7,167z"/>
				<path fill="#253143" d="M220,165.9c0.1,0.4-0.2,0.8-0.6,0.9l-6,1.2c-0.4,0.1-0.8-0.2-0.9-0.6l-1.2-5.7c-0.1-0.4,0.2-0.8,0.6-0.9
					l6-1.2c0.4-0.1,0.8,0.2,0.9,0.6L220,165.9z"/>
				<path fill="#253143" d="M200.2,171.9c0.2,0.4,0.1,0.8-0.3,1.1l-5.2,3.2c-0.4,0.2-0.8,0.1-1.1-0.3l-3-5c-0.2-0.4-0.1-0.8,0.3-1
					l5.2-3.2c0.4-0.2,0.8-0.1,1.1,0.3L200.2,171.9z"/>
				<path fill="#253143" d="M183.7,184.4c0.3,0.3,0.4,0.7,0.1,1.1l-3.8,4.8c-0.3,0.3-0.7,0.4-1.1,0.1l-4.5-3.6
					c-0.3-0.3-0.4-0.7-0.1-1.1l3.8-4.8c0.3-0.3,0.7-0.4,1.1-0.1L183.7,184.4z"/>
				<path fill="#253143" d="M172.4,201.8c0.4,0.1,0.6,0.6,0.5,1l-1.9,5.8c-0.1,0.4-0.6,0.6-1,0.5l-5.5-1.8c-0.4-0.1-0.6-0.6-0.5-1
					l1.9-5.8c0.1-0.4,0.6-0.6,1-0.5L172.4,201.8z"/>
				<path fill="#253143" d="M167.8,222c0.4,0,0.8,0.3,0.8,0.7l0.2,6.1c0,0.4-0.3,0.8-0.7,0.8l-5.8,0.2c-0.4,0-0.8-0.3-0.8-0.7
					l-0.2-6.1c0-0.4,0.3-0.8,0.7-0.8L167.8,222z"/>
				<path fill="#253143" d="M170.3,242.5c0.4-0.2,0.8,0,1,0.4l2.2,5.7c0.2,0.4,0,0.8-0.4,1l-5.4,2.1c-0.4,0.2-0.8,0-1-0.4l-2.3-5.7
					c-0.1-0.4,0-0.8,0.4-1L170.3,242.5z"/>
				<path fill="#253143" d="M179.7,261c0.3-0.3,0.8-0.3,1.1,0.1l4,4.6c0.3,0.3,0.3,0.8-0.1,1.1l-4.4,3.8c-0.3,0.3-0.8,0.3-1.1-0.1
					l-4.1-4.6c-0.3-0.3-0.2-0.8,0.1-1.1L179.7,261z"/>
				<path fill="#253143" d="M194.9,275.1c0.2-0.4,0.7-0.5,1-0.3l5.4,2.9c0.4,0.2,0.5,0.7,0.3,1l-2.8,5.1c-0.2,0.4-0.7,0.5-1,0.3
					l-5.4-2.9c-0.4-0.2-0.5-0.7-0.3-1L194.9,275.1z"/>
				<path fill="#253143" d="M213.9,283.1c0.1-0.4,0.4-0.7,0.9-0.6l6,0.9c0.4,0.1,0.7,0.4,0.6,0.9l-0.9,5.7c-0.1,0.4-0.5,0.7-0.9,0.6
					l-6.1-0.9c-0.4-0.1-0.7-0.5-0.6-0.9L213.9,283.1z"/>
				<path fill="#253143" d="M234.6,284.2c-0.1-0.4,0.2-0.8,0.6-0.9l6-1.2c0.4-0.1,0.8,0.2,0.9,0.6l1.2,5.7c0.1,0.4-0.2,0.8-0.6,0.9
					l-6,1.2c-0.4,0.1-0.8-0.2-0.9-0.6L234.6,284.2z"/>
				<path fill="#253143" d="M254.4,278.1c-0.2-0.4-0.1-0.8,0.3-1l5.2-3.2c0.4-0.2,0.8-0.1,1.1,0.3l3,5c0.2,0.4,0.1,0.8-0.3,1
					l-5.2,3.2c-0.4,0.2-0.8,0.1-1.1-0.3L254.4,278.1z"/>
			</g>
			<g>
				<path fill="#3B596F" d="M177.8,225.1c0-4.6,0.6-9.2,1.9-13.7c3.6-12.7,12-23.2,23.6-29.7c11.6-6.4,24.9-7.9,37.7-4.3
					c21.1,6.1,35.9,25.6,35.9,47.6c0,4.6-0.7,9.2-1.9,13.7c-3.6,12.7-12,23.2-23.6,29.7c-11.6,6.4-24.9,7.9-37.7,4.3
					C192.5,266.6,177.8,247,177.8,225.1L177.8,225.1z M272,225c0-19.8-13.3-37.5-32.4-42.9c-11.5-3.3-23.5-1.9-34,3.9
					c-10.4,5.8-18,15.3-21.3,26.8c-1.2,4-1.7,8.2-1.7,12.3c0,19.8,13.3,37.5,32.4,42.9c11.5,3.3,23.5,1.9,34-3.9
					c10.4-5.8,18-15.3,21.3-26.8C271.4,233.3,272,229.2,272,225L272,225z"/>
			</g>
			<g>
				<path fill="#3B596F" d="M199.8,225.1c0-2.6,0.4-5.1,1.1-7.6c4.2-14.6,19.4-23,34-18.9c11.7,3.4,19.9,14.2,19.9,26.4
					c0,2.6-0.4,5.1-1.1,7.6c-2,7.1-6.7,12.9-13.1,16.5c-6.4,3.6-13.9,4.4-20.9,2.4C208,248.1,199.8,237.3,199.8,225.1L199.8,225.1z
					 M253.2,225c0-11.5-7.7-21.7-18.8-24.9c-13.7-3.9-28.1,4-32,17.8c-0.7,2.3-1,4.7-1,7.2c0,11.5,7.7,21.7,18.8,24.9
					c6.6,1.9,13.6,1.1,19.7-2.2s10.4-8.9,12.3-15.5C252.9,229.8,253.2,227.4,253.2,225L253.2,225z"/>
			</g>
			<g>
				<path fill="#3B596F" d="M194.4,225.1c0-3.1,0.4-6.1,1.3-9.1c2.4-8.4,8-15.4,15.7-19.7c7.7-4.3,16.6-5.3,25-2.8
					c14,4,23.8,17,23.8,31.6c0,3.1-0.4,6.1-1.3,9.1c-2.4,8.4-8,15.4-15.7,19.7c-7.7,4.3-16.6,5.3-25,2.8
					C204.2,252.6,194.4,239.6,194.4,225.1L194.4,225.1z M258.6,225c0-13.9-9.3-26.2-22.6-30c-8-2.3-16.5-1.3-23.8,2.7
					c-7.3,4-12.6,10.7-14.9,18.7c-0.8,2.8-1.2,5.7-1.2,8.6c0,13.9,9.3,26.2,22.6,30c8,2.3,16.5,1.3,23.8-2.7
					c7.3-4,12.6-10.7,14.9-18.7C258.2,230.8,258.6,227.9,258.6,225L258.6,225z"/>
			</g>
			<path fill="#2D3357" d="M219.2,222.7c1.3-4.5,6-7.1,10.5-5.8c4.5,1.3,7.1,6,5.8,10.5c-1.3,4.5-6,7.1-10.5,5.8
				C220.5,231.9,217.9,227.2,219.2,222.7z"/>
		</g>

		<g class="gear -reverse">
			<path fill="#3B596F" d="M234,381.5l1-3.4c1.3,0.1,2.5,0.1,3.8,0l0.8,3.3c0.2,0.8,1,1.3,1.8,1.1l5.8-1.4c0.8-0.2,1.3-1,1.1-1.8
				l-0.9-3.5c1.1-0.5,2.2-1.2,3.3-1.9l2.4,2.5c0.6,0.6,1.5,0.6,2.1,0l4.3-4.1c0.6-0.6,0.6-1.5,0-2.1l-2.5-2.6c0.7-1,1.4-2.1,1.9-3.3
				l3.3,0.9c0.8,0.2,1.6-0.2,1.8-1l1.6-5.7c0.2-0.8-0.2-1.6-1-1.9l-3.4-1c0.1-1.3,0.1-2.5,0-3.8l3.3-0.8c0.8-0.2,1.3-1,1.1-1.8
				l-1.4-5.8c-0.2-0.8-1-1.3-1.8-1.1l-3.5,0.9c-0.5-1.1-1.2-2.2-1.9-3.3l2.5-2.4c0.6-0.6,0.6-1.5,0-2.1l-4.1-4.3
				c-0.6-0.6-1.5-0.6-2.1,0l-2.6,2.5c-1-0.7-2.1-1.3-3.3-1.9l1-3.3c0.2-0.8-0.2-1.6-1-1.9l-5.7-1.6c-0.8-0.2-1.6,0.2-1.9,1l-1,3.4
				c-1.3-0.1-2.5-0.1-3.8,0l-0.8-3.3c-0.2-0.8-1-1.3-1.8-1.1l-5.8,1.4c-0.8,0.2-1.3,1-1.1,1.8l0.9,3.5c-1.1,0.5-2.2,1.2-3.3,1.9
				l-2.4-2.5c-0.6-0.6-1.5-0.6-2.1,0l-4.3,4.2c-0.6,0.6-0.6,1.5,0,2.1l2.5,2.6c-0.7,1-1.4,2.1-1.9,3.3l-3.3-1c-0.8-0.2-1.6,0.2-1.8,1
				l-1.7,5.8c-0.2,0.8,0.2,1.6,1,1.8l3.4,1c-0.1,1.3-0.1,2.5,0,3.8l-3.3,0.8c-0.8,0.2-1.3,1-1.1,1.8l1.4,5.8c0.2,0.8,1,1.3,1.8,1.1
				l3.5-0.9c0.5,1.1,1.2,2.3,1.9,3.3l-2.5,2.4c-0.6,0.6-0.6,1.5,0,2.1l4.2,4.3c0.6,0.6,1.5,0.6,2.1,0l2.6-2.5c1,0.7,2.1,1.3,3.3,1.9
				l-1,3.3c-0.2,0.8,0.2,1.6,1,1.8l5.7,1.7C233,382.7,233.8,382.3,234,381.5z M226.9,350.7c1.6-5.6,7.4-8.8,13-7.2
				c5.6,1.6,8.8,7.4,7.2,13c-1.6,5.6-7.4,8.8-13,7.2C228.5,362.2,225.3,356.3,226.9,350.7z"/>
		</g>

		<g>
			<g>
				<path fill="#64B8C1" d="M221.7,353.6c0-1.4,0.2-2.8,0.6-4.2c1.1-3.9,3.7-7.2,7.3-9.2c3.6-2,7.7-2.5,11.6-1.3
					c6.5,1.9,11.1,7.9,11.1,14.7c0,1.4-0.2,2.8-0.6,4.2c-2.3,8.1-10.8,12.8-18.9,10.5C226.3,366.5,221.7,360.4,221.7,353.6
					L221.7,353.6z M250.7,353.6c0-6.1-4.1-11.5-9.9-13.1c-3.5-1-7.2-0.6-10.4,1.2c-3.2,1.8-5.5,4.7-6.5,8.2c-0.4,1.2-0.5,2.5-0.5,3.8
					c0,6.1,4.1,11.5,9.9,13.1c7.2,2.1,14.8-2.1,16.9-9.4C250.5,356.2,250.7,354.9,250.7,353.6L250.7,353.6z"/>
			</g>
			<g>
				<path fill="#64B8C1" d="M246.4,224.2c0-0.4,0.3-0.8,0.8-0.8c0.4,0,0.8,0.3,0.8,0.8l4.2,128.2c0,0.4-0.3,0.8-0.8,0.8
					c-0.4,0-0.8-0.3-0.8-0.8L246.4,224.2C246.4,224.2,246.4,224.2,246.4,224.2L246.4,224.2z"/>
			</g>
			<g>
				<path fill="#64B8C1" d="M206.8,225.1c0-0.4,0.3-0.8,0.7-0.8c0.4-0.1,0.8,0.3,0.9,0.7l15.1,130.9c0.1,0.5-0.3,0.8-0.7,0.9
					c-0.4,0.1-0.8-0.3-0.9-0.7L206.8,225.1C206.8,225.2,206.8,225.1,206.8,225.1L206.8,225.1z"/>
			</g>
			<g>
				<path fill="#FFFFFF" d="M206.6,225.1c0-1.9,0.3-3.9,0.8-5.7c1.5-5.3,5-9.7,9.9-12.4c4.8-2.7,10.4-3.3,15.8-1.8
					c8.8,2.5,15,10.7,15,19.9c0,1.9-0.3,3.9-0.8,5.7c-1.5,5.3-5,9.7-9.9,12.4c-4.8,2.7-10.4,3.3-15.8,1.8
					C212.8,242.4,206.6,234.2,206.6,225.1L206.6,225.1z M246,225c0-8.3-5.6-15.7-13.6-18c-4.8-1.4-9.9-0.8-14.2,1.6
					c-4.4,2.4-7.5,6.4-8.9,11.2c-0.5,1.7-0.7,3.4-0.7,5.2c0,8.3,5.6,15.7,13.6,18c4.8,1.4,9.9,0.8,14.2-1.6c4.4-2.4,7.5-6.4,8.9-11.2
					C245.8,228.5,246,226.8,246,225L246,225z"/>
			</g>
		</g>
	</g>

	<g>
		<path fill="#93CBD6" d="M322.1,42.1c0-12.6-10.3-22.9-22.9-22.9c-2.7,0-5.3,0.5-7.7,1.4C288.7,8.8,278.1,0,265.4,0
			c-14.6,0-26.4,11.7-26.7,26.2c-1.3-0.3-2.6-0.4-4-0.4c-10.8,0-19.6,8.8-19.6,19.6c0,8.9,5.9,16.4,14,18.8c1.6,0.5,3.4,0.8,5.2,0.8
			h66.1c2,0,4-0.4,5.7-1.1C315.3,61.1,322.1,52.4,322.1,42.1z"/>
		<path fill="#7FB9C7" d="M299.2,19.2c-2.7,0-5.3,0.5-7.7,1.4C288.7,8.8,278.1,0,265.4,0c-0.5,0-1,0-1.5,0.1v65h36.4
			c2,0,4-0.4,5.7-1.1c9.3-2.9,16-11.6,16-21.8C322.1,29.5,311.8,19.2,299.2,19.2z"/>
		<path fill="#71A5B3" d="M306.1,64c9.3-2.9,16-11.6,16-21.8c0-12.6-10.3-22.9-22.9-22.9c-2.7,0-5.3,0.5-7.7,1.4
			c-0.6-2.5-1.6-4.9-2.8-7.1c-0.8,2-1.3,4.1-1.3,6.3c-0.8-0.2-1.7-0.3-2.6-0.3c-7.1,0-12.9,5.8-12.9,12.9c0,3.7,1.6,7.1,4.1,9.4l0,0
			l23,23h1.5C302.3,65,304.3,64.7,306.1,64z"/>
		<path fill="#FFFFFF" d="M342.2,30.4c0-8.3-6.8-15.1-15.1-15.1c-1.8,0-3.5,0.3-5.1,0.9c-1.8-7.8-8.8-13.6-17.1-13.6
			c-9.6,0-17.4,7.7-17.6,17.3c-0.8-0.2-1.7-0.3-2.6-0.3c-7.1,0-12.9,5.8-12.9,12.9c0,5.8,3.9,10.8,9.2,12.4c1.1,0.4,2.2,0.6,3.4,0.6
			h43.5c1.3,0,2.6-0.3,3.8-0.7C337.8,42.9,342.2,37.2,342.2,30.4z"/>
		<path fill="#BEDFEF" d="M327.2,15.3c-1.8,0-3.5,0.3-5.1,0.9c-1.7-7.2-7.8-12.7-15.4-13.5v42.8h21.2c1.3,0,2.6-0.3,3.8-0.7
			c6.1-1.9,10.6-7.6,10.6-14.4C342.2,22.1,335.5,15.3,327.2,15.3z"/>
	</g>

	<g>
		<ellipse opacity="0.15" fill="#262424" cx="141.4" cy="429" rx="117.6" ry="20.3"/>
		<path fill="#365175" d="M239.8,420.8V122c0-4.3-3.5-7.8-7.8-7.8H50c-4.3,0-7.8,3.5-7.8,7.8v298.8c0,4.3,3.5,7.8,7.8,7.8h182
			C236.3,428.6,239.8,425.1,239.8,420.8z"/>
		<circle fill="none" stroke="#ECEFF1" stroke-width="2.5" stroke-miterlimit="10" cx="141" cy="410.8" r="8.2"/>
		<path fill="#ECEFF1" d="M169.6,126.1h-57.2c-0.6,0-1,0.5-1,1v2.1c0,0.6,0.5,1,1,1h57.2c0.6,0,1-0.5,1-1v-2.1
			C170.6,126.5,170.1,126.1,169.6,126.1z"/>
		<rect x="61.4" y="138.7" fill="#153C3A" width="159.6" height="20.6"/>
		<rect x="61.4" y="159.3" fill="#4BCDCD" width="159.6" height="122.4"/>
		<rect x="61.4" y="281.7" fill="#D8D9DD" width="159.6" height="112.1"/>
		<circle fill="#8F9D3A" cx="200.5" cy="374.6" r="11.9"/>
	</g>
</svg>
