<?xml version="1.0" encoding="utf-8"?>
<!-- Generator: Adobe Illustrator 18.1.1, SVG Export Plug-In . SVG Version: 6.00 Build 0)  -->
<svg version="1.1" id="Layer_1" xmlns="http://www.w3.org/2000/svg" xmlns:xlink="http://www.w3.org/1999/xlink" x="0px" y="0px"
	 viewBox="0 0 48 48" enable-background="new 0 0 48 48" xml:space="preserve">
<g>
	<circle fill="#FFC107" cx="24" cy="24" r="24"/>
	<path fill="#FF5722" d="M39.4,11.8h1.9l-0.4,0.4c-1,1-1.5,2.3-1.5,3.7V17c0,2.9-2.3,5.2-5.2,5.2H19.3c-2.9,0-5.2-2.3-5.2-5.2v0
		c0-2.9,2.3-5.2,5.2-5.2H39.4z"/>
	<path fill="#FF5722" d="M9.3,26.4H7.4l0.4,0.4c1,1,1.5,2.3,1.5,3.7v1.1c0,2.9,2.3,5.2,5.2,5.2h14.9c2.9,0,5.2-2.3,5.2-5.2v0
		c0-2.9-2.3-5.2-5.2-5.2H9.3z"/>
</g>
</svg>
